<?xml version="1.0" encoding="utf-8" standalone="no"?>
<!DOCTYPE svg PUBLIC "-//W3C//DTD SVG 1.1//EN"
  "http://www.w3.org/Graphics/SVG/1.1/DTD/svg11.dtd">
<svg xmlns:xlink="http://www.w3.org/1999/xlink" width="568.714687pt" height="285.957187pt" viewBox="0 0 568.714687 285.957187" xmlns="http://www.w3.org/2000/svg" version="1.1">
 <metadata>
  <rdf:RDF xmlns:dc="http://purl.org/dc/elements/1.1/" xmlns:cc="http://creativecommons.org/ns#" xmlns:rdf="http://www.w3.org/1999/02/22-rdf-syntax-ns#">
   <cc:Work>
    <dc:type rdf:resource="http://purl.org/dc/dcmitype/StillImage"/>
    <dc:date>2025-07-21T11:22:34.094646</dc:date>
    <dc:format>image/svg+xml</dc:format>
    <dc:creator>
     <cc:Agent>
      <dc:title>Matplotlib v3.10.3, https://matplotlib.org/</dc:title>
     </cc:Agent>
    </dc:creator>
   </cc:Work>
  </rdf:RDF>
 </metadata>
 <defs>
  <style type="text/css">*{stroke-linejoin: round; stroke-linecap: butt}</style>
 </defs>
 <g id="figure_1">
  <g id="patch_1">
   <path d="M 0 285.957187 
L 568.714687 285.957187 
L 568.714687 0 
L 0 0 
z
" style="fill: #ffffff"/>
  </g>
  <g id="axes_1">
   <g id="patch_2">
    <path d="M 38.054688 257.24 
L 561.514687 257.24 
L 561.514687 76.407 
L 38.054688 76.407 
z
" style="fill: #ffffff"/>
   </g>
   <g id="matplotlib.axis_1">
    <g id="xtick_1">
     <g id="line2d_1">
      <defs>
       <path id="mb42deb9f38" d="M 0 0 
L 0 3.5 
" style="stroke: #000000; stroke-width: 0.8"/>
      </defs>
      <g>
       <use xlink:href="#mb42deb9f38" x="38.054688" y="257.24" style="stroke: #000000; stroke-width: 0.8"/>
      </g>
     </g>
     <g id="text_1">
      <!-- 0 -->
      <g transform="translate(33.282812 275.637656) scale(0.15 -0.15)">
       <defs>
        <path id="DejaVuSans-30" d="M 2034 4250 
Q 1547 4250 1301 3770 
Q 1056 3291 1056 2328 
Q 1056 1369 1301 889 
Q 1547 409 2034 409 
Q 2525 409 2770 889 
Q 3016 1369 3016 2328 
Q 3016 3291 2770 3770 
Q 2525 4250 2034 4250 
z
M 2034 4750 
Q 2819 4750 3233 4129 
Q 3647 3509 3647 2328 
Q 3647 1150 3233 529 
Q 2819 -91 2034 -91 
Q 1250 -91 836 529 
Q 422 1150 422 2328 
Q 422 3509 836 4129 
Q 1250 4750 2034 4750 
z
" transform="scale(0.015625)"/>
       </defs>
       <use xlink:href="#DejaVuSans-30"/>
      </g>
     </g>
    </g>
    <g id="xtick_2">
     <g id="line2d_2">
      <g>
       <use xlink:href="#mb42deb9f38" x="99.783461" y="257.24" style="stroke: #000000; stroke-width: 0.8"/>
      </g>
     </g>
     <g id="text_2">
      <!-- 100 -->
      <g transform="translate(85.467836 275.637656) scale(0.15 -0.15)">
       <defs>
        <path id="DejaVuSans-31" d="M 794 531 
L 1825 531 
L 1825 4091 
L 703 3866 
L 703 4441 
L 1819 4666 
L 2450 4666 
L 2450 531 
L 3481 531 
L 3481 0 
L 794 0 
L 794 531 
z
" transform="scale(0.015625)"/>
       </defs>
       <use xlink:href="#DejaVuSans-31"/>
       <use xlink:href="#DejaVuSans-30" transform="translate(63.623047 0)"/>
       <use xlink:href="#DejaVuSans-30" transform="translate(127.246094 0)"/>
      </g>
     </g>
    </g>
    <g id="xtick_3">
     <g id="line2d_3">
      <g>
       <use xlink:href="#mb42deb9f38" x="161.512235" y="257.24" style="stroke: #000000; stroke-width: 0.8"/>
      </g>
     </g>
     <g id="text_3">
      <!-- 200 -->
      <g transform="translate(147.19661 275.637656) scale(0.15 -0.15)">
       <defs>
        <path id="DejaVuSans-32" d="M 1228 531 
L 3431 531 
L 3431 0 
L 469 0 
L 469 531 
Q 828 903 1448 1529 
Q 2069 2156 2228 2338 
Q 2531 2678 2651 2914 
Q 2772 3150 2772 3378 
Q 2772 3750 2511 3984 
Q 2250 4219 1831 4219 
Q 1534 4219 1204 4116 
Q 875 4013 500 3803 
L 500 4441 
Q 881 4594 1212 4672 
Q 1544 4750 1819 4750 
Q 2544 4750 2975 4387 
Q 3406 4025 3406 3419 
Q 3406 3131 3298 2873 
Q 3191 2616 2906 2266 
Q 2828 2175 2409 1742 
Q 1991 1309 1228 531 
z
" transform="scale(0.015625)"/>
       </defs>
       <use xlink:href="#DejaVuSans-32"/>
       <use xlink:href="#DejaVuSans-30" transform="translate(63.623047 0)"/>
       <use xlink:href="#DejaVuSans-30" transform="translate(127.246094 0)"/>
      </g>
     </g>
    </g>
    <g id="xtick_4">
     <g id="line2d_4">
      <g>
       <use xlink:href="#mb42deb9f38" x="223.241008" y="257.24" style="stroke: #000000; stroke-width: 0.8"/>
      </g>
     </g>
     <g id="text_4">
      <!-- 300 -->
      <g transform="translate(208.925383 275.637656) scale(0.15 -0.15)">
       <defs>
        <path id="DejaVuSans-33" d="M 2597 2516 
Q 3050 2419 3304 2112 
Q 3559 1806 3559 1356 
Q 3559 666 3084 287 
Q 2609 -91 1734 -91 
Q 1441 -91 1130 -33 
Q 819 25 488 141 
L 488 750 
Q 750 597 1062 519 
Q 1375 441 1716 441 
Q 2309 441 2620 675 
Q 2931 909 2931 1356 
Q 2931 1769 2642 2001 
Q 2353 2234 1838 2234 
L 1294 2234 
L 1294 2753 
L 1863 2753 
Q 2328 2753 2575 2939 
Q 2822 3125 2822 3475 
Q 2822 3834 2567 4026 
Q 2313 4219 1838 4219 
Q 1578 4219 1281 4162 
Q 984 4106 628 3988 
L 628 4550 
Q 988 4650 1302 4700 
Q 1616 4750 1894 4750 
Q 2613 4750 3031 4423 
Q 3450 4097 3450 3541 
Q 3450 3153 3228 2886 
Q 3006 2619 2597 2516 
z
" transform="scale(0.015625)"/>
       </defs>
       <use xlink:href="#DejaVuSans-33"/>
       <use xlink:href="#DejaVuSans-30" transform="translate(63.623047 0)"/>
       <use xlink:href="#DejaVuSans-30" transform="translate(127.246094 0)"/>
      </g>
     </g>
    </g>
    <g id="xtick_5">
     <g id="line2d_5">
      <g>
       <use xlink:href="#mb42deb9f38" x="284.969782" y="257.24" style="stroke: #000000; stroke-width: 0.8"/>
      </g>
     </g>
     <g id="text_5">
      <!-- 400 -->
      <g transform="translate(270.654157 275.637656) scale(0.15 -0.15)">
       <defs>
        <path id="DejaVuSans-34" d="M 2419 4116 
L 825 1625 
L 2419 1625 
L 2419 4116 
z
M 2253 4666 
L 3047 4666 
L 3047 1625 
L 3713 1625 
L 3713 1100 
L 3047 1100 
L 3047 0 
L 2419 0 
L 2419 1100 
L 313 1100 
L 313 1709 
L 2253 4666 
z
" transform="scale(0.015625)"/>
       </defs>
       <use xlink:href="#DejaVuSans-34"/>
       <use xlink:href="#DejaVuSans-30" transform="translate(63.623047 0)"/>
       <use xlink:href="#DejaVuSans-30" transform="translate(127.246094 0)"/>
      </g>
     </g>
    </g>
    <g id="xtick_6">
     <g id="line2d_6">
      <g>
       <use xlink:href="#mb42deb9f38" x="346.698555" y="257.24" style="stroke: #000000; stroke-width: 0.8"/>
      </g>
     </g>
     <g id="text_6">
      <!-- 500 -->
      <g transform="translate(332.38293 275.637656) scale(0.15 -0.15)">
       <defs>
        <path id="DejaVuSans-35" d="M 691 4666 
L 3169 4666 
L 3169 4134 
L 1269 4134 
L 1269 2991 
Q 1406 3038 1543 3061 
Q 1681 3084 1819 3084 
Q 2600 3084 3056 2656 
Q 3513 2228 3513 1497 
Q 3513 744 3044 326 
Q 2575 -91 1722 -91 
Q 1428 -91 1123 -41 
Q 819 9 494 109 
L 494 744 
Q 775 591 1075 516 
Q 1375 441 1709 441 
Q 2250 441 2565 725 
Q 2881 1009 2881 1497 
Q 2881 1984 2565 2268 
Q 2250 2553 1709 2553 
Q 1456 2553 1204 2497 
Q 953 2441 691 2322 
L 691 4666 
z
" transform="scale(0.015625)"/>
       </defs>
       <use xlink:href="#DejaVuSans-35"/>
       <use xlink:href="#DejaVuSans-30" transform="translate(63.623047 0)"/>
       <use xlink:href="#DejaVuSans-30" transform="translate(127.246094 0)"/>
      </g>
     </g>
    </g>
    <g id="xtick_7">
     <g id="line2d_7">
      <g>
       <use xlink:href="#mb42deb9f38" x="408.427329" y="257.24" style="stroke: #000000; stroke-width: 0.8"/>
      </g>
     </g>
     <g id="text_7">
      <!-- 600 -->
      <g transform="translate(394.111704 275.637656) scale(0.15 -0.15)">
       <defs>
        <path id="DejaVuSans-36" d="M 2113 2584 
Q 1688 2584 1439 2293 
Q 1191 2003 1191 1497 
Q 1191 994 1439 701 
Q 1688 409 2113 409 
Q 2538 409 2786 701 
Q 3034 994 3034 1497 
Q 3034 2003 2786 2293 
Q 2538 2584 2113 2584 
z
M 3366 4563 
L 3366 3988 
Q 3128 4100 2886 4159 
Q 2644 4219 2406 4219 
Q 1781 4219 1451 3797 
Q 1122 3375 1075 2522 
Q 1259 2794 1537 2939 
Q 1816 3084 2150 3084 
Q 2853 3084 3261 2657 
Q 3669 2231 3669 1497 
Q 3669 778 3244 343 
Q 2819 -91 2113 -91 
Q 1303 -91 875 529 
Q 447 1150 447 2328 
Q 447 3434 972 4092 
Q 1497 4750 2381 4750 
Q 2619 4750 2861 4703 
Q 3103 4656 3366 4563 
z
" transform="scale(0.015625)"/>
       </defs>
       <use xlink:href="#DejaVuSans-36"/>
       <use xlink:href="#DejaVuSans-30" transform="translate(63.623047 0)"/>
       <use xlink:href="#DejaVuSans-30" transform="translate(127.246094 0)"/>
      </g>
     </g>
    </g>
    <g id="xtick_8">
     <g id="line2d_8">
      <g>
       <use xlink:href="#mb42deb9f38" x="470.156103" y="257.24" style="stroke: #000000; stroke-width: 0.8"/>
      </g>
     </g>
     <g id="text_8">
      <!-- 700 -->
      <g transform="translate(455.840478 275.637656) scale(0.15 -0.15)">
       <defs>
        <path id="DejaVuSans-37" d="M 525 4666 
L 3525 4666 
L 3525 4397 
L 1831 0 
L 1172 0 
L 2766 4134 
L 525 4134 
L 525 4666 
z
" transform="scale(0.015625)"/>
       </defs>
       <use xlink:href="#DejaVuSans-37"/>
       <use xlink:href="#DejaVuSans-30" transform="translate(63.623047 0)"/>
       <use xlink:href="#DejaVuSans-30" transform="translate(127.246094 0)"/>
      </g>
     </g>
    </g>
    <g id="xtick_9">
     <g id="line2d_9">
      <g>
       <use xlink:href="#mb42deb9f38" x="531.884876" y="257.24" style="stroke: #000000; stroke-width: 0.8"/>
      </g>
     </g>
     <g id="text_9">
      <!-- 800 -->
      <g transform="translate(517.569251 275.637656) scale(0.15 -0.15)">
       <defs>
        <path id="DejaVuSans-38" d="M 2034 2216 
Q 1584 2216 1326 1975 
Q 1069 1734 1069 1313 
Q 1069 891 1326 650 
Q 1584 409 2034 409 
Q 2484 409 2743 651 
Q 3003 894 3003 1313 
Q 3003 1734 2745 1975 
Q 2488 2216 2034 2216 
z
M 1403 2484 
Q 997 2584 770 2862 
Q 544 3141 544 3541 
Q 544 4100 942 4425 
Q 1341 4750 2034 4750 
Q 2731 4750 3128 4425 
Q 3525 4100 3525 3541 
Q 3525 3141 3298 2862 
Q 3072 2584 2669 2484 
Q 3125 2378 3379 2068 
Q 3634 1759 3634 1313 
Q 3634 634 3220 271 
Q 2806 -91 2034 -91 
Q 1263 -91 848 271 
Q 434 634 434 1313 
Q 434 1759 690 2068 
Q 947 2378 1403 2484 
z
M 1172 3481 
Q 1172 3119 1398 2916 
Q 1625 2713 2034 2713 
Q 2441 2713 2670 2916 
Q 2900 3119 2900 3481 
Q 2900 3844 2670 4047 
Q 2441 4250 2034 4250 
Q 1625 4250 1398 4047 
Q 1172 3844 1172 3481 
z
" transform="scale(0.015625)"/>
       </defs>
       <use xlink:href="#DejaVuSans-38"/>
       <use xlink:href="#DejaVuSans-30" transform="translate(63.623047 0)"/>
       <use xlink:href="#DejaVuSans-30" transform="translate(127.246094 0)"/>
      </g>
     </g>
    </g>
   </g>
   <g id="matplotlib.axis_2">
    <g id="ytick_1">
     <g id="line2d_10">
      <defs>
       <path id="mb17a7a43f8" d="M 0 0 
L -3.5 0 
" style="stroke: #000000; stroke-width: 0.8"/>
      </defs>
      <g>
       <use xlink:href="#mb17a7a43f8" x="38.054688" y="257.092714" style="stroke: #000000; stroke-width: 0.8"/>
      </g>
     </g>
     <g id="text_10">
      <!-- 3.6 -->
      <g transform="translate(7.2 262.791542) scale(0.15 -0.15)">
       <defs>
        <path id="DejaVuSans-2e" d="M 684 794 
L 1344 794 
L 1344 0 
L 684 0 
L 684 794 
z
" transform="scale(0.015625)"/>
       </defs>
       <use xlink:href="#DejaVuSans-33"/>
       <use xlink:href="#DejaVuSans-2e" transform="translate(63.623047 0)"/>
       <use xlink:href="#DejaVuSans-36" transform="translate(95.410156 0)"/>
      </g>
     </g>
    </g>
    <g id="ytick_2">
     <g id="line2d_11">
      <g>
       <use xlink:href="#mb17a7a43f8" x="38.054688" y="221.758577" style="stroke: #000000; stroke-width: 0.8"/>
      </g>
     </g>
     <g id="text_11">
      <!-- 3.8 -->
      <g transform="translate(7.2 227.457406) scale(0.15 -0.15)">
       <use xlink:href="#DejaVuSans-33"/>
       <use xlink:href="#DejaVuSans-2e" transform="translate(63.623047 0)"/>
       <use xlink:href="#DejaVuSans-38" transform="translate(95.410156 0)"/>
      </g>
     </g>
    </g>
    <g id="ytick_3">
     <g id="line2d_12">
      <g>
       <use xlink:href="#mb17a7a43f8" x="38.054688" y="186.424441" style="stroke: #000000; stroke-width: 0.8"/>
      </g>
     </g>
     <g id="text_12">
      <!-- 4.0 -->
      <g transform="translate(7.2 192.123269) scale(0.15 -0.15)">
       <use xlink:href="#DejaVuSans-34"/>
       <use xlink:href="#DejaVuSans-2e" transform="translate(63.623047 0)"/>
       <use xlink:href="#DejaVuSans-30" transform="translate(95.410156 0)"/>
      </g>
     </g>
    </g>
    <g id="ytick_4">
     <g id="line2d_13">
      <g>
       <use xlink:href="#mb17a7a43f8" x="38.054688" y="151.090305" style="stroke: #000000; stroke-width: 0.8"/>
      </g>
     </g>
     <g id="text_13">
      <!-- 4.2 -->
      <g transform="translate(7.2 156.789133) scale(0.15 -0.15)">
       <use xlink:href="#DejaVuSans-34"/>
       <use xlink:href="#DejaVuSans-2e" transform="translate(63.623047 0)"/>
       <use xlink:href="#DejaVuSans-32" transform="translate(95.410156 0)"/>
      </g>
     </g>
    </g>
    <g id="ytick_5">
     <g id="line2d_14">
      <g>
       <use xlink:href="#mb17a7a43f8" x="38.054688" y="115.756169" style="stroke: #000000; stroke-width: 0.8"/>
      </g>
     </g>
     <g id="text_14">
      <!-- 4.4 -->
      <g transform="translate(7.2 121.454997) scale(0.15 -0.15)">
       <use xlink:href="#DejaVuSans-34"/>
       <use xlink:href="#DejaVuSans-2e" transform="translate(63.623047 0)"/>
       <use xlink:href="#DejaVuSans-34" transform="translate(95.410156 0)"/>
      </g>
     </g>
    </g>
    <g id="ytick_6">
     <g id="line2d_15">
      <g>
       <use xlink:href="#mb17a7a43f8" x="38.054688" y="80.422032" style="stroke: #000000; stroke-width: 0.8"/>
      </g>
     </g>
     <g id="text_15">
      <!-- 4.6 -->
      <g transform="translate(7.2 86.120861) scale(0.15 -0.15)">
       <use xlink:href="#DejaVuSans-34"/>
       <use xlink:href="#DejaVuSans-2e" transform="translate(63.623047 0)"/>
       <use xlink:href="#DejaVuSans-36" transform="translate(95.410156 0)"/>
      </g>
     </g>
    </g>
   </g>
   <g id="line2d_16">
    <path d="M 38.054688 255.438403 
L 38.671975 256.414122 
L 39.289263 256.229372 
L 40.523838 253.241293 
L 41.141126 252.969594 
L 41.758414 253.205771 
L 42.992989 255.186774 
L 43.610277 255.235043 
L 44.227565 252.295769 
L 44.844853 250.572379 
L 45.46214 248.051112 
L 46.079428 246.839521 
L 46.696716 246.424391 
L 47.314004 247.097743 
L 47.931291 248.029823 
L 48.548579 248.509213 
L 49.165867 249.664775 
L 49.783154 249.409622 
L 50.400442 249.889244 
L 51.01773 251.217221 
L 52.252305 257.24 
L 52.869593 256.652213 
L 53.486881 257.176966 
L 54.104169 255.520531 
L 55.338744 250.263533 
L 55.956032 248.59279 
L 56.57332 247.497706 
L 57.190607 245.285256 
L 57.807895 243.736087 
L 58.425183 240.041466 
L 59.659758 235.521945 
L 60.277046 234.350143 
L 61.511621 233.397559 
L 62.128909 231.464938 
L 62.746197 230.041655 
L 63.363485 227.142895 
L 63.980772 225.865764 
L 65.832636 223.934513 
L 66.449923 224.214916 
L 67.684499 225.534287 
L 68.301787 225.888602 
L 68.919074 227.523072 
L 69.536362 229.801948 
L 70.15365 230.97693 
L 72.005513 224.208814 
L 73.240088 223.269158 
L 73.857376 224.072183 
L 74.474664 224.372813 
L 75.709239 227.131544 
L 76.326527 226.579178 
L 77.561103 223.208008 
L 78.17839 222.394242 
L 78.795678 221.978927 
L 80.030254 223.365078 
L 80.647541 224.134925 
L 81.264829 225.905009 
L 81.882117 226.124757 
L 82.499404 226.540719 
L 83.116692 228.281994 
L 83.73398 229.388446 
L 84.351268 229.678941 
L 84.968555 230.907107 
L 85.585843 231.152063 
L 86.203131 230.327385 
L 86.820419 229.210697 
L 87.437706 227.810728 
L 88.054994 227.13309 
L 88.672282 228.483953 
L 89.28957 227.7101 
L 89.906857 227.434838 
L 90.524145 228.195011 
L 91.141433 228.102202 
L 91.758721 227.878051 
L 92.376008 227.405435 
L 92.993296 227.84305 
L 93.610584 228.631152 
L 94.227871 229.891067 
L 94.845159 230.885493 
L 95.462447 232.167649 
L 96.079735 231.96742 
L 96.697022 230.707916 
L 97.931598 225.45781 
L 98.548886 223.057016 
L 99.166173 221.322045 
L 99.783461 220.915096 
L 100.400749 221.090662 
L 101.018037 221.973336 
L 101.635324 223.126626 
L 102.252612 223.808637 
L 102.8699 224.893455 
L 103.487187 224.390239 
L 104.104475 224.292369 
L 104.721763 223.278663 
L 105.339051 221.999718 
L 106.573626 218.61424 
L 107.190914 217.903916 
L 107.808202 217.394213 
L 108.425489 214.65853 
L 109.042777 213.211083 
L 109.660065 212.66171 
L 110.277353 211.474106 
L 111.511928 213.230748 
L 112.129216 211.634801 
L 112.746504 208.839332 
L 113.981079 207.040867 
L 114.598367 206.761911 
L 115.832942 207.235636 
L 116.45023 206.074378 
L 117.684805 205.419649 
L 118.302093 205.334276 
L 118.919381 206.583747 
L 119.536669 207.210708 
L 120.153956 208.63708 
L 120.771244 209.085452 
L 121.388532 207.453275 
L 122.00582 204.963119 
L 123.857683 195.832164 
L 124.474971 194.197088 
L 125.092258 193.761386 
L 125.709546 193.671792 
L 126.326834 192.999495 
L 126.944121 193.193155 
L 127.561409 194.145984 
L 128.178697 193.124038 
L 128.795985 193.357773 
L 129.413272 193.060854 
L 130.03056 194.019906 
L 130.647848 194.14913 
L 131.265136 194.497982 
L 131.882423 194.163406 
L 132.499711 194.984142 
L 133.116999 196.134653 
L 133.734287 200.16063 
L 134.351574 203.08756 
L 134.968862 204.998579 
L 135.58615 204.79984 
L 136.203437 205.524498 
L 136.820725 208.052432 
L 137.438013 210.111078 
L 138.672588 213.163571 
L 139.289876 213.406026 
L 139.907164 212.538488 
L 140.524452 212.679345 
L 141.141739 213.924413 
L 142.993603 218.765016 
L 143.61089 217.694494 
L 144.228178 217.614137 
L 144.845466 216.538335 
L 145.462754 215.698808 
L 146.080041 215.912822 
L 146.697329 215.830074 
L 147.314617 216.037152 
L 148.549192 212.789325 
L 149.16648 211.404188 
L 149.783768 211.534175 
L 151.635631 211.021055 
L 152.252919 212.42034 
L 152.870206 214.8822 
L 154.104782 215.720798 
L 155.339357 217.782788 
L 155.956645 219.270057 
L 156.573933 219.930003 
L 157.191221 221.553111 
L 158.425796 220.276074 
L 159.043084 219.976976 
L 159.660371 220.606063 
L 160.277659 220.927515 
L 160.894947 221.507078 
L 161.512235 223.328115 
L 162.129522 224.087572 
L 162.74681 223.451921 
L 163.364098 223.951911 
L 163.981386 223.598166 
L 165.215961 223.862595 
L 165.833249 222.358136 
L 166.450537 220.38118 
L 167.067824 220.803229 
L 167.685112 220.849222 
L 168.3024 221.251624 
L 168.919687 221.227958 
L 169.536975 222.170945 
L 170.154263 221.360209 
L 170.771551 220.866012 
L 171.388838 219.986021 
L 172.006126 219.421799 
L 172.623414 219.614513 
L 173.240702 218.744721 
L 173.857989 218.739738 
L 175.092565 217.612842 
L 175.709853 217.356296 
L 176.32714 216.536215 
L 176.944428 214.277132 
L 178.179004 213.595534 
L 178.796291 213.467186 
L 179.413579 215.32612 
L 180.030867 214.756205 
L 180.648154 213.600341 
L 181.88273 209.547144 
L 182.500018 208.049296 
L 183.117305 207.522705 
L 183.734593 208.856519 
L 184.351881 209.202245 
L 184.969169 210.711535 
L 185.586456 210.290831 
L 186.203744 210.00772 
L 186.821032 210.636968 
L 187.43832 210.88871 
L 188.055607 209.898981 
L 188.672895 209.461827 
L 189.290183 208.495971 
L 191.142046 203.591495 
L 191.759334 203.705024 
L 192.376621 204.281623 
L 192.993909 201.66797 
L 193.611197 200.000455 
L 194.228485 199.803285 
L 195.46306 200.459651 
L 196.080348 202.49007 
L 196.697636 202.59768 
L 197.314923 202.451893 
L 197.932211 201.951245 
L 198.549499 201.608401 
L 199.166787 201.071103 
L 199.784074 199.250866 
L 200.401362 199.172071 
L 201.01865 198.434392 
L 201.635937 195.622899 
L 202.870513 195.09147 
L 203.487801 193.106484 
L 204.105088 192.670077 
L 204.722376 193.454102 
L 205.339664 194.502724 
L 205.956952 190.850287 
L 206.574239 188.308464 
L 207.191527 187.57723 
L 207.808815 188.293077 
L 208.426103 188.315726 
L 209.04339 188.604171 
L 209.660678 189.183154 
L 210.277966 190.696542 
L 211.512541 190.279165 
L 212.129829 190.35442 
L 212.747117 190.707134 
L 213.981692 192.517089 
L 215.216268 195.519832 
L 215.833555 194.573902 
L 216.450843 194.629779 
L 217.068131 195.137963 
L 217.685419 194.734187 
L 218.302706 195.689583 
L 218.919994 196.032162 
L 220.15457 199.399786 
L 220.771857 199.076432 
L 222.006433 201.145705 
L 223.241008 206.425798 
L 223.858296 207.760232 
L 224.475584 208.811716 
L 225.092871 210.209594 
L 225.710159 210.153727 
L 226.327447 210.330906 
L 226.944735 210.856372 
L 227.562022 210.428855 
L 228.17931 208.717211 
L 228.796598 209.434702 
L 229.413886 210.460684 
L 230.031173 209.982096 
L 231.265749 206.588869 
L 231.883037 205.500598 
L 232.500324 206.3225 
L 233.117612 206.248338 
L 233.7349 205.886507 
L 234.352187 205.261301 
L 235.586763 206.251455 
L 237.438626 210.063973 
L 238.055914 212.67725 
L 238.673202 214.680547 
L 239.290489 216.05706 
L 239.907777 216.905716 
L 240.525065 217.070318 
L 241.142353 215.412821 
L 241.75964 216.185987 
L 242.376928 216.189822 
L 242.994216 215.263108 
L 243.611504 212.07462 
L 244.846079 208.338571 
L 245.463367 208.355257 
L 246.080654 208.092511 
L 246.697942 210.037588 
L 247.31523 210.464412 
L 249.167093 211.296269 
L 249.784381 209.175071 
L 250.401669 206.08106 
L 251.018956 204.639139 
L 251.636244 202.56207 
L 252.253532 201.5479 
L 252.87082 199.779283 
L 254.105395 198.41116 
L 254.722683 195.475213 
L 255.339971 193.502481 
L 256.574546 187.581226 
L 258.426409 181.984179 
L 259.043697 180.554089 
L 259.660985 180.898587 
L 260.278272 182.085288 
L 260.89556 182.856187 
L 261.512848 183.399002 
L 262.130136 182.827666 
L 262.747423 184.736781 
L 263.364711 184.609301 
L 263.981999 184.920045 
L 264.599287 184.372723 
L 265.216574 183.096902 
L 265.833862 183.114916 
L 266.45115 182.781607 
L 267.068437 182.23158 
L 267.685725 180.44448 
L 268.303013 180.913982 
L 268.920301 179.256562 
L 269.537588 178.631144 
L 270.154876 177.107112 
L 270.772164 176.398067 
L 272.006739 177.370624 
L 272.624027 178.675124 
L 273.858603 175.480125 
L 275.710466 172.816087 
L 276.327754 171.003782 
L 277.562329 171.347568 
L 278.179617 170.093811 
L 278.796904 169.781849 
L 279.414192 169.080329 
L 280.03148 169.425692 
L 280.648768 169.46124 
L 281.266055 170.286272 
L 281.883343 170.465994 
L 282.500631 172.538044 
L 283.117919 172.795518 
L 283.735206 172.116075 
L 284.352494 172.446124 
L 284.969782 172.493613 
L 285.58707 170.754743 
L 286.204357 168.55491 
L 286.821645 166.826284 
L 287.438933 166.57993 
L 288.056221 165.943223 
L 288.673508 164.064692 
L 289.290796 163.607374 
L 289.908084 163.87787 
L 290.525371 163.483435 
L 291.142659 162.435604 
L 291.759947 162.475741 
L 292.994522 159.206386 
L 293.61181 158.518443 
L 294.229098 158.374312 
L 294.846386 157.797191 
L 295.463673 157.958326 
L 296.080961 157.40343 
L 296.698249 157.833074 
L 297.315537 158.57086 
L 297.932824 156.662556 
L 299.1674 151.580728 
L 300.401975 151.102661 
L 301.019263 151.104883 
L 301.636551 150.550006 
L 302.253838 148.670115 
L 302.871126 147.320658 
L 303.488414 145.526219 
L 304.105702 145.4184 
L 305.340277 142.849415 
L 305.957565 141.734297 
L 306.574853 139.462519 
L 307.809428 137.00876 
L 309.044004 131.013452 
L 309.661291 129.129095 
L 310.278579 127.645744 
L 311.513154 125.730706 
L 312.130442 124.748785 
L 312.74773 124.096506 
L 313.365018 124.683492 
L 314.599593 124.576181 
L 315.216881 122.283508 
L 316.451456 118.784471 
L 317.068744 116.637239 
L 318.30332 114.226354 
L 319.537895 107.160703 
L 320.155183 105.343206 
L 320.772471 104.651793 
L 321.389758 105.223248 
L 322.007046 104.268775 
L 324.476197 99.54346 
L 325.093485 99.448149 
L 325.710772 99.764871 
L 326.32806 99.488658 
L 326.945348 99.635052 
L 328.797211 102.563137 
L 329.414499 103.059572 
L 330.031787 103.371411 
L 330.649074 104.22133 
L 331.88365 103.075065 
L 332.500937 102.954712 
L 333.118225 103.098356 
L 333.735513 104.76745 
L 334.352801 105.422416 
L 334.970088 104.744387 
L 335.587376 104.87185 
L 336.204664 105.145665 
L 337.439239 108.368046 
L 338.056527 110.063716 
L 338.673815 112.81796 
L 339.291103 113.66477 
L 339.90839 113.36219 
L 340.525678 113.439697 
L 341.142966 114.415543 
L 341.760254 114.948472 
L 342.377541 116.051153 
L 342.994829 116.593563 
L 343.612117 117.346285 
L 344.229404 116.537435 
L 344.846692 116.47609 
L 345.46398 116.087472 
L 346.081268 116.075015 
L 347.315843 114.77518 
L 347.933131 115.372739 
L 348.550419 115.322707 
L 349.167706 115.966159 
L 349.784994 114.992803 
L 350.402282 113.671615 
L 351.01957 112.752985 
L 351.636857 113.634177 
L 352.254145 115.584058 
L 352.871433 116.193423 
L 353.488721 116.487946 
L 354.723296 120.086888 
L 355.340584 123.272034 
L 355.957871 124.464338 
L 356.575159 123.760771 
L 357.192447 124.545399 
L 357.809735 124.516758 
L 358.427022 126.312213 
L 359.04431 126.756542 
L 359.661598 128.336891 
L 360.278886 129.227962 
L 360.896173 130.720115 
L 362.130749 133.08488 
L 362.748037 133.614988 
L 363.982612 135.698982 
L 364.5999 136.963615 
L 365.834475 140.93969 
L 367.686338 145.339556 
L 370.155489 155.451538 
L 370.772777 157.003014 
L 371.390065 157.659016 
L 372.007353 159.343402 
L 372.62464 160.588225 
L 373.241928 163.465474 
L 376.328367 173.738907 
L 376.945654 176.654252 
L 378.797518 183.417692 
L 379.414805 183.65055 
L 380.032093 183.335344 
L 380.649381 183.766708 
L 381.266669 183.433347 
L 381.883956 182.432786 
L 382.501244 182.244258 
L 383.118532 182.195955 
L 384.353107 183.050732 
L 385.587683 182.167239 
L 386.204971 181.531788 
L 386.822258 181.573306 
L 387.439546 182.317034 
L 388.056834 181.606325 
L 388.674121 180.235842 
L 389.908697 178.983942 
L 390.525985 179.152596 
L 391.143272 178.802057 
L 391.76056 178.091488 
L 392.377848 176.513398 
L 393.612423 174.857125 
L 394.846999 173.087855 
L 395.464287 172.652116 
L 396.081574 172.421101 
L 397.31615 169.558845 
L 398.550725 164.205096 
L 399.168013 161.993414 
L 399.785301 160.818893 
L 400.402588 157.943869 
L 401.019876 156.061629 
L 402.254452 149.851473 
L 402.871739 147.232471 
L 404.106315 143.248537 
L 404.723603 140.21168 
L 405.34089 139.060763 
L 405.958178 138.240851 
L 406.575466 136.878955 
L 407.192754 136.037085 
L 407.810041 134.914374 
L 408.427329 133.215815 
L 409.044617 129.672631 
L 409.661904 127.503017 
L 410.279192 126.007625 
L 410.89648 124.179332 
L 412.131055 122.449685 
L 412.748343 123.299938 
L 413.365631 124.933562 
L 414.600206 130.462046 
L 415.217494 131.69036 
L 415.834782 133.399271 
L 416.45207 136.146444 
L 417.069357 135.583842 
L 417.686645 134.857251 
L 418.303933 133.879819 
L 418.921221 134.33923 
L 419.538508 135.545681 
L 420.155796 137.247577 
L 421.390371 144.039733 
L 422.007659 146.367022 
L 423.242235 152.774406 
L 425.094098 158.860268 
L 426.328673 161.759806 
L 426.945961 164.005741 
L 428.180537 166.645556 
L 428.797824 168.161642 
L 429.415112 170.587354 
L 430.0324 172.260297 
L 430.649687 174.642828 
L 431.884263 180.399629 
L 432.501551 180.567359 
L 433.118838 182.392047 
L 434.353414 187.925316 
L 434.970702 192.617638 
L 436.822565 202.227069 
L 437.439853 202.948335 
L 438.05714 203.275641 
L 438.674428 203.427127 
L 439.291716 204.246867 
L 440.526291 207.695844 
L 442.378154 211.055345 
L 444.847305 214.898856 
L 445.464593 215.302822 
L 446.081881 216.712834 
L 447.316456 218.487536 
L 447.933744 217.956154 
L 448.551032 217.634102 
L 449.16832 217.748735 
L 449.785607 218.034728 
L 450.402895 218.678422 
L 451.020183 218.385736 
L 451.637471 217.151691 
L 452.254758 216.272651 
L 453.489334 215.617693 
L 454.723909 215.724075 
L 455.341197 213.594425 
L 455.958485 212.924603 
L 457.19306 212.534524 
L 457.810348 211.23101 
L 458.427636 210.360253 
L 460.279499 203.622198 
L 460.896787 201.111884 
L 461.514074 199.671324 
L 462.131362 198.526879 
L 462.74865 200.077443 
L 463.365937 199.858538 
L 464.600513 196.708232 
L 465.217801 197.179057 
L 465.835088 200.620938 
L 466.452376 200.592629 
L 467.069664 198.427662 
L 467.686952 196.842048 
L 468.304239 197.070482 
L 468.921527 197.567902 
L 469.538815 194.810356 
L 470.77339 190.948047 
L 471.390678 190.227013 
L 472.007966 190.237192 
L 473.242541 192.16625 
L 473.859829 194.336381 
L 474.477117 196.089078 
L 475.094404 198.675822 
L 475.711692 200.389291 
L 476.32898 200.802923 
L 476.946268 199.432207 
L 478.180843 199.933459 
L 478.798131 200.876564 
L 479.415419 201.233245 
L 480.032706 200.848795 
L 480.649994 201.210126 
L 481.267282 202.025966 
L 481.88457 204.182105 
L 482.501857 203.077496 
L 483.119145 204.497458 
L 483.736433 204.795358 
L 485.588296 203.63525 
L 486.205584 203.344537 
L 486.822871 202.020455 
L 487.440159 201.998128 
L 488.057447 202.396389 
L 488.674735 200.837402 
L 489.292022 200.383885 
L 489.90931 199.731718 
L 490.526598 198.688324 
L 491.143886 197.868886 
L 491.761173 196.832292 
L 492.378461 196.738548 
L 492.995749 197.81764 
L 493.613037 198.010406 
L 494.847612 199.094368 
L 496.082187 201.237547 
L 497.316763 202.121378 
L 499.168626 207.131718 
L 500.403202 208.539302 
L 501.020489 208.845332 
L 501.637777 208.831853 
L 502.255065 209.073314 
L 502.872353 208.694266 
L 504.106928 205.485493 
L 504.724216 202.602105 
L 505.341504 201.465401 
L 505.958791 201.2113 
L 506.576079 199.735183 
L 507.193367 200.521773 
L 507.810654 200.897563 
L 508.427942 201.430607 
L 509.04523 202.204141 
L 509.662518 202.14611 
L 510.279805 203.865853 
L 510.897093 204.334557 
L 511.514381 206.547943 
L 512.748956 209.109641 
L 513.983532 212.427733 
L 514.60082 215.085665 
L 515.218107 215.829485 
L 515.835395 217.58501 
L 516.452683 217.80347 
L 517.069971 217.212399 
L 517.687258 218.479429 
L 518.304546 220.315875 
L 518.921834 219.858104 
L 519.539121 219.180375 
L 520.773697 220.921524 
L 521.390985 220.484209 
L 522.008272 220.187453 
L 522.62556 218.11869 
L 523.242848 217.769387 
L 523.860136 217.712327 
L 524.477423 217.08626 
L 525.094711 217.754412 
L 526.329287 218.674574 
L 526.946574 218.138608 
L 527.563862 214.821343 
L 528.18115 213.270461 
L 528.798437 210.462397 
L 529.415725 209.019 
L 530.033013 208.441989 
L 530.650301 208.801329 
L 531.267588 207.192995 
L 531.884876 204.767844 
L 533.119452 199.151132 
L 533.736739 196.474986 
L 534.354027 196.136252 
L 535.588603 193.579646 
L 536.20589 193.207598 
L 536.823178 192.129951 
L 537.440466 189.976852 
L 538.057754 186.347175 
L 538.675041 184.1208 
L 539.292329 182.329289 
L 539.909617 181.867204 
L 540.526904 183.87116 
L 541.144192 185.125949 
L 542.996055 187.391509 
L 543.613343 186.871013 
L 544.230631 185.851828 
L 544.847919 185.846454 
L 545.465206 186.421178 
L 546.082494 186.263031 
L 546.699782 186.476476 
L 547.31707 185.923021 
L 547.934357 185.880869 
L 548.551645 185.084054 
L 549.168933 186.757048 
L 549.786221 186.102304 
L 550.403508 186.87237 
L 551.020796 185.845263 
L 551.638084 186.034171 
L 552.255371 186.643245 
L 552.872659 188.295253 
L 553.489947 188.847985 
L 554.107235 188.228283 
L 554.724522 187.320871 
L 555.34181 186.20733 
L 556.576386 184.657403 
L 557.193673 186.278127 
L 557.810961 187.274183 
L 558.428249 188.866696 
L 559.045537 191.703089 
L 559.662824 191.865727 
L 560.280112 193.982664 
L 561.514687 203.66858 
L 561.514687 203.66858 
" clip-path="url(#pb3ec141504)" style="fill: none; stroke: #1f77b4; stroke-width: 1.5; stroke-linecap: square"/>
   </g>
   <g id="line2d_17">
    <path d="M 38.054688 230.860405 
L 38.671975 231.897363 
L 39.289263 231.471854 
L 40.523838 227.93049 
L 41.141126 227.507183 
L 42.992989 228.589396 
L 43.610277 228.531641 
L 44.227565 225.446669 
L 45.46214 220.772472 
L 46.079428 219.366123 
L 46.696716 218.800166 
L 47.314004 218.685024 
L 47.931291 219.944235 
L 48.548579 220.516216 
L 49.165867 221.628912 
L 49.783154 221.788426 
L 50.400442 222.271535 
L 51.01773 223.869683 
L 52.252305 229.083614 
L 52.869593 228.912148 
L 53.486881 229.723538 
L 54.104169 227.923456 
L 55.338744 222.810445 
L 55.956032 222.613372 
L 56.57332 221.413831 
L 59.042471 213.006117 
L 60.277046 210.132636 
L 60.894334 210.224578 
L 61.511621 210.489087 
L 62.128909 209.315526 
L 63.980772 203.299943 
L 64.59806 203.236051 
L 65.215348 202.903585 
L 65.832636 202.268933 
L 67.067211 204.172807 
L 67.684499 204.570521 
L 68.301787 203.866964 
L 68.919074 205.360487 
L 69.536362 207.209062 
L 70.15365 208.260539 
L 72.005513 204.141472 
L 73.240088 204.080974 
L 73.857376 205.477343 
L 75.091952 207.368317 
L 75.709239 208.595786 
L 76.326527 207.863487 
L 77.561103 204.307435 
L 78.17839 203.942867 
L 78.795678 203.304919 
L 79.412966 204.314957 
L 80.647541 205.419273 
L 81.264829 206.435125 
L 81.882117 207.027422 
L 82.499404 207.248686 
L 83.116692 207.792473 
L 85.585843 211.587239 
L 86.203131 211.47515 
L 86.820419 210.094629 
L 87.437706 208.39251 
L 88.054994 208.014201 
L 88.672282 208.237235 
L 89.28957 207.963102 
L 89.906857 207.226574 
L 90.524145 207.567769 
L 91.141433 207.545466 
L 92.376008 206.240159 
L 92.993296 206.886099 
L 93.610584 206.587964 
L 94.227871 207.723845 
L 94.845159 208.25895 
L 95.462447 210.190715 
L 96.079735 209.461701 
L 96.697022 208.209828 
L 97.31431 205.409681 
L 98.548886 201.102639 
L 99.166173 199.906907 
L 99.783461 199.798393 
L 100.400749 199.936465 
L 101.018037 201.134578 
L 101.635324 202.580599 
L 102.252612 203.219553 
L 102.8699 204.401239 
L 103.487187 204.126693 
L 104.104475 204.127025 
L 104.721763 203.184385 
L 105.339051 202.445112 
L 105.956338 200.003192 
L 106.573626 198.339239 
L 107.808202 197.926965 
L 108.425489 195.374304 
L 109.042777 194.182127 
L 109.660065 194.710531 
L 110.277353 193.375649 
L 111.511928 195.146468 
L 112.129216 193.43974 
L 112.746504 190.897315 
L 113.363791 190.759626 
L 113.981079 189.87372 
L 114.598367 189.585832 
L 115.832942 190.687994 
L 116.45023 189.292962 
L 117.067518 189.373767 
L 117.684805 189.058962 
L 119.536669 190.647524 
L 120.153956 191.397369 
L 120.771244 191.133489 
L 121.388532 189.702629 
L 122.623107 183.598382 
L 123.240395 180.367634 
L 123.857683 178.864035 
L 124.474971 178.233186 
L 125.092258 177.322529 
L 125.709546 177.371803 
L 126.326834 176.889757 
L 126.944121 177.45126 
L 127.561409 178.286333 
L 128.178697 177.850133 
L 128.795985 177.904421 
L 129.413272 177.378238 
L 130.03056 177.846893 
L 130.647848 177.546995 
L 131.265136 177.073999 
L 131.882423 176.856039 
L 132.499711 177.372543 
L 133.116999 179.308526 
L 133.734287 182.9076 
L 134.351574 185.634463 
L 134.968862 187.381753 
L 135.58615 187.762087 
L 136.203437 188.446827 
L 136.820725 191.820222 
L 137.438013 194.462291 
L 138.055301 196.599424 
L 138.672588 197.71738 
L 139.289876 198.231682 
L 139.907164 197.38649 
L 140.524452 197.217367 
L 141.141739 197.304206 
L 142.376315 199.526774 
L 142.993603 200.759117 
L 143.61089 200.461815 
L 144.228178 200.770193 
L 144.845466 199.619198 
L 145.462754 198.929532 
L 146.080041 200.208549 
L 146.697329 200.054417 
L 147.314617 200.154305 
L 149.16648 195.938401 
L 149.783768 196.189567 
L 151.018343 195.540401 
L 151.635631 195.753066 
L 152.252919 197.38491 
L 152.870206 199.79084 
L 153.487494 199.369663 
L 154.104782 199.973206 
L 155.956645 203.349873 
L 156.573933 203.7273 
L 157.191221 204.483546 
L 157.808508 203.272687 
L 158.425796 202.59676 
L 159.043084 202.276709 
L 159.660371 203.245924 
L 160.277659 203.113876 
L 160.894947 203.567698 
L 161.512235 206.058755 
L 162.129522 207.321692 
L 162.74681 206.913528 
L 163.981386 206.758813 
L 164.598673 206.01277 
L 165.215961 205.512225 
L 165.833249 203.556357 
L 166.450537 202.075852 
L 167.685112 203.104971 
L 168.3024 204.422151 
L 168.919687 204.828649 
L 169.536975 204.957608 
L 170.154263 203.896236 
L 170.771551 203.350623 
L 171.388838 201.684357 
L 172.006126 200.980146 
L 172.623414 201.275515 
L 173.240702 199.610544 
L 173.857989 198.933016 
L 175.092565 199.305086 
L 175.709853 199.063437 
L 176.32714 198.234222 
L 176.944428 196.758534 
L 178.179004 196.278688 
L 178.796291 196.411329 
L 179.413579 197.997468 
L 180.030867 197.540334 
L 180.648154 196.474724 
L 181.265442 195.733817 
L 181.88273 193.686546 
L 182.500018 192.11798 
L 183.117305 192.245789 
L 183.734593 193.599634 
L 184.351881 194.241431 
L 184.969169 195.336753 
L 185.586456 195.231136 
L 186.203744 194.811125 
L 186.821032 195.834518 
L 187.43832 197.081293 
L 188.055607 197.175106 
L 189.290183 195.06562 
L 189.907471 194.046118 
L 191.142046 191.660824 
L 191.759334 191.368735 
L 192.376621 192.382229 
L 193.611197 188.199674 
L 194.228485 188.384108 
L 194.845772 188.887133 
L 195.46306 188.86759 
L 196.080348 190.610983 
L 196.697636 190.389861 
L 197.314923 190.025688 
L 198.549499 188.803043 
L 199.166787 188.871517 
L 199.784074 186.591916 
L 200.401362 185.992245 
L 201.01865 184.347269 
L 201.635937 182.107248 
L 202.253225 181.855505 
L 202.870513 181.905298 
L 203.487801 180.290471 
L 204.105088 180.239106 
L 204.722376 181.755945 
L 205.339664 182.805866 
L 206.574239 177.360579 
L 207.191527 175.66524 
L 207.808815 175.910182 
L 208.426103 176.743671 
L 209.04339 176.657468 
L 209.660678 177.063763 
L 210.277966 179.096756 
L 210.895254 178.944968 
L 211.512541 179.059448 
L 212.129829 178.516851 
L 212.747117 178.39079 
L 213.364404 178.860709 
L 215.216268 181.171489 
L 215.833555 180.601355 
L 216.450843 180.416679 
L 217.068131 180.913261 
L 217.685419 180.886449 
L 218.302706 181.080371 
L 218.919994 181.725136 
L 220.15457 184.347947 
L 220.771857 184.108324 
L 222.006433 185.442606 
L 223.241008 189.96916 
L 223.858296 191.792286 
L 224.475584 191.587656 
L 225.092871 192.885044 
L 225.710159 192.138307 
L 226.327447 192.289669 
L 226.944735 192.72552 
L 227.562022 192.387123 
L 228.17931 190.625672 
L 228.796598 191.016866 
L 229.413886 193.225299 
L 230.031173 194.03928 
L 230.648461 193.715366 
L 231.265749 192.059449 
L 231.883037 191.202881 
L 232.500324 192.457452 
L 233.7349 191.885568 
L 234.352187 190.834782 
L 234.969475 191.696903 
L 235.586763 191.331125 
L 236.204051 192.256082 
L 237.438626 195.758799 
L 238.673202 201.488363 
L 239.907777 204.227094 
L 240.525065 204.374183 
L 241.142353 202.358528 
L 241.75964 203.005749 
L 242.376928 202.188092 
L 242.994216 200.133365 
L 243.611504 197.029073 
L 244.846079 193.652088 
L 245.463367 193.186181 
L 246.080654 193.410834 
L 246.697942 194.660734 
L 247.31523 194.685007 
L 247.932518 194.305343 
L 249.167093 195.676023 
L 249.784381 193.664387 
L 250.401669 190.994193 
L 251.636244 186.949354 
L 252.87082 185.468574 
L 254.105395 183.661896 
L 254.722683 180.552331 
L 255.339971 178.103263 
L 255.957258 174.895643 
L 256.574546 173.209629 
L 257.809121 167.919787 
L 259.043697 164.565186 
L 259.660985 164.297805 
L 260.278272 165.020712 
L 260.89556 165.520288 
L 262.130136 166.181817 
L 262.747423 167.94867 
L 263.364711 167.554723 
L 263.981999 167.333561 
L 264.599287 166.517458 
L 265.216574 166.018615 
L 265.833862 166.532449 
L 266.45115 166.114086 
L 267.068437 165.419732 
L 267.685725 164.443401 
L 268.303013 164.83471 
L 268.920301 164.905431 
L 269.537588 164.318123 
L 270.772164 161.619173 
L 271.389452 161.571234 
L 272.006739 162.282099 
L 272.624027 163.88668 
L 273.241315 162.417841 
L 273.858603 161.657997 
L 274.47589 161.470467 
L 275.710466 159.79405 
L 276.945041 157.07608 
L 279.414192 154.596946 
L 280.03148 154.765262 
L 281.266055 157.265235 
L 281.883343 158.135521 
L 282.500631 160.084064 
L 283.117919 159.774945 
L 283.735206 158.67595 
L 284.352494 159.540958 
L 284.969782 158.753421 
L 285.58707 157.101453 
L 286.204357 154.118826 
L 286.821645 151.855462 
L 288.056221 150.175907 
L 288.673508 148.450255 
L 289.290796 147.716633 
L 289.908084 147.945247 
L 290.525371 148.650819 
L 291.142659 147.134831 
L 291.759947 147.032274 
L 292.377235 145.474582 
L 292.994522 143.503794 
L 293.61181 142.21242 
L 294.229098 141.938117 
L 294.846386 141.37083 
L 295.463673 140.554729 
L 296.080961 138.754064 
L 296.698249 139.150929 
L 297.315537 138.743066 
L 297.932824 136.84589 
L 298.550112 135.310114 
L 299.1674 133.097185 
L 300.401975 131.400642 
L 301.019263 131.96166 
L 302.253838 128.511385 
L 302.871126 127.339924 
L 303.488414 125.248358 
L 304.105702 123.917714 
L 305.957565 118.854684 
L 306.574853 116.342363 
L 307.19214 114.422968 
L 307.809428 113.31851 
L 309.044004 108.583865 
L 310.895867 103.67236 
L 311.513154 103.264072 
L 312.130442 102.31545 
L 313.365018 101.991753 
L 313.982305 101.47315 
L 314.599593 101.27769 
L 315.216881 98.833239 
L 315.834169 97.497988 
L 316.451456 96.534928 
L 317.686032 93.253883 
L 318.30332 92.348743 
L 319.537895 85.561456 
L 320.155183 83.24813 
L 320.772471 82.245258 
L 321.389758 81.665903 
L 322.624334 79.204837 
L 323.241621 77.362928 
L 323.858909 76.534779 
L 324.476197 76.518702 
L 325.093485 76.696512 
L 325.710772 76.410686 
L 326.945348 76.483882 
L 327.562636 77.24242 
L 328.179923 78.422493 
L 329.414499 79.214693 
L 330.031787 79.933889 
L 330.649074 81.399974 
L 331.266362 80.236372 
L 331.88365 79.535577 
L 332.500937 79.895243 
L 333.118225 79.863206 
L 333.735513 81.092735 
L 334.352801 81.275357 
L 334.970088 80.538538 
L 336.204664 81.728713 
L 336.821952 82.728101 
L 338.056527 85.884688 
L 338.673815 88.197157 
L 339.291103 89.103524 
L 340.525678 88.639058 
L 341.142966 88.818943 
L 341.760254 89.324468 
L 342.377541 90.115385 
L 343.612117 92.357815 
L 344.229404 90.80524 
L 344.846692 91.03809 
L 345.46398 90.946921 
L 348.550419 89.637116 
L 349.167706 90.030623 
L 349.784994 89.714274 
L 350.402282 88.658158 
L 351.01957 88.182908 
L 351.636857 89.007192 
L 352.871433 92.060653 
L 353.488721 91.651475 
L 354.106008 93.156439 
L 355.340584 98.279766 
L 355.957871 99.534358 
L 356.575159 98.773762 
L 357.192447 99.431759 
L 357.809735 100.283444 
L 358.427022 102.25065 
L 359.04431 102.903906 
L 359.661598 104.779908 
L 360.278886 105.190416 
L 360.896173 107.068049 
L 361.513461 108.269509 
L 362.130749 109.921471 
L 362.748037 109.243524 
L 363.982612 111.931462 
L 365.217187 115.362239 
L 366.451763 120.094645 
L 367.069051 121.967922 
L 367.686338 123.333922 
L 370.155489 133.43508 
L 371.390065 135.804399 
L 372.007353 137.708967 
L 372.62464 138.447815 
L 373.859216 142.765215 
L 374.476504 143.993952 
L 375.711079 148.913206 
L 376.328367 150.944555 
L 378.18023 158.39859 
L 378.797518 159.444058 
L 379.414805 159.391906 
L 380.032093 159.883893 
L 380.649381 160.552079 
L 381.266669 160.527632 
L 381.883956 159.932706 
L 382.501244 160.116051 
L 383.118532 160.6895 
L 384.353107 160.869522 
L 386.204971 159.142217 
L 386.822258 158.890369 
L 387.439546 159.194137 
L 388.056834 158.110692 
L 388.674121 157.670293 
L 389.291409 157.772857 
L 389.908697 156.783655 
L 390.525985 156.596856 
L 391.143272 156.934248 
L 391.76056 156.182114 
L 392.377848 154.710794 
L 392.995136 153.952184 
L 393.612423 152.489058 
L 394.229711 151.565368 
L 394.846999 150.185468 
L 395.464287 150.11043 
L 396.081574 150.597217 
L 396.698862 149.317621 
L 397.31615 147.219336 
L 397.933437 144.128281 
L 399.785301 138.878316 
L 400.402588 137.086223 
L 401.019876 134.807695 
L 402.254452 128.232363 
L 402.871739 125.629047 
L 403.489027 123.660797 
L 404.723603 120.55248 
L 405.958178 118.733387 
L 407.192754 116.762293 
L 407.810041 116.430503 
L 408.427329 113.918451 
L 409.044617 110.601414 
L 410.89648 105.059619 
L 412.131055 104.157944 
L 412.748343 104.487402 
L 413.365631 105.627068 
L 413.982919 107.418119 
L 414.600206 109.947255 
L 415.217494 110.667558 
L 416.45207 113.908038 
L 417.069357 113.16258 
L 418.303933 110.784645 
L 418.921221 110.395126 
L 419.538508 111.662372 
L 420.773084 116.911602 
L 421.390371 120.751093 
L 422.007659 123.704752 
L 423.859522 130.219068 
L 425.711386 133.398933 
L 426.328673 134.967154 
L 426.945961 137.010031 
L 427.563249 137.810691 
L 428.797824 141.387427 
L 430.0324 146.300603 
L 430.649687 147.59112 
L 431.266975 149.266835 
L 431.884263 151.270046 
L 432.501551 152.215858 
L 433.118838 154.163884 
L 434.353414 159.6917 
L 436.205277 170.569995 
L 436.822565 173.460497 
L 437.439853 173.760539 
L 438.05714 174.757689 
L 438.674428 175.08987 
L 439.291716 176.201357 
L 440.526291 179.753281 
L 441.760867 182.357601 
L 442.378154 183.412104 
L 442.995442 184.225154 
L 444.230018 186.497111 
L 445.464593 187.490274 
L 446.699169 189.316518 
L 447.316456 190.145493 
L 447.933744 189.909238 
L 448.551032 189.282568 
L 449.16832 189.230143 
L 449.785607 189.946388 
L 450.402895 189.464784 
L 451.020183 189.892085 
L 451.637471 188.53444 
L 452.254758 187.850177 
L 453.489334 187.399914 
L 454.106621 187.29053 
L 454.723909 187.301679 
L 455.958485 185.814918 
L 456.575772 185.294802 
L 457.19306 185.164861 
L 457.810348 184.696164 
L 458.427636 185.015236 
L 460.279499 177.378076 
L 460.896787 176.145424 
L 461.514074 175.229246 
L 462.131362 174.539298 
L 462.74865 177.097795 
L 463.365937 177.308584 
L 464.600513 174.409873 
L 465.217801 175.19202 
L 465.835088 179.579394 
L 466.452376 178.762895 
L 467.069664 176.481443 
L 467.686952 175.358011 
L 468.304239 175.22667 
L 468.921527 176.442451 
L 469.538815 173.573531 
L 470.156103 173.040711 
L 470.77339 171.96863 
L 471.390678 170.409703 
L 472.007966 171.346637 
L 472.625254 172.730161 
L 473.242541 173.319894 
L 473.859829 174.568557 
L 475.094404 178.863545 
L 475.711692 179.498778 
L 476.32898 179.964256 
L 476.946268 178.901103 
L 478.180843 179.327378 
L 478.798131 181.157993 
L 479.415419 181.34003 
L 480.032706 181.024403 
L 480.649994 181.031386 
L 481.267282 182.366288 
L 481.88457 184.163888 
L 482.501857 183.514902 
L 483.119145 184.536844 
L 483.736433 185.22875 
L 484.353721 185.267028 
L 484.971008 185.021841 
L 485.588296 184.054931 
L 486.822871 183.125861 
L 487.440159 183.261389 
L 488.057447 183.586882 
L 488.674735 182.633266 
L 489.90931 180.439021 
L 490.526598 178.676798 
L 491.143886 178.187212 
L 491.761173 177.527753 
L 492.378461 177.260785 
L 492.995749 177.958559 
L 493.613037 178.199875 
L 494.230324 178.257886 
L 494.847612 179.31787 
L 495.4649 180.082398 
L 496.082187 180.013172 
L 496.699475 179.758285 
L 497.316763 180.552256 
L 497.934051 181.624986 
L 498.551338 183.322413 
L 500.403202 186.388727 
L 501.020489 185.962283 
L 502.255065 185.987182 
L 502.872353 185.41849 
L 503.48964 185.058915 
L 504.106928 183.26456 
L 504.724216 180.982352 
L 505.341504 180.109455 
L 505.958791 180.444967 
L 506.576079 179.426548 
L 507.193367 180.131948 
L 507.810654 180.344382 
L 508.427942 181.107654 
L 509.04523 180.481536 
L 509.662518 180.418528 
L 510.279805 181.943733 
L 510.897093 182.763226 
L 511.514381 184.596546 
L 512.131669 184.573828 
L 512.748956 185.546238 
L 513.366244 186.278752 
L 514.60082 190.194429 
L 515.218107 190.637478 
L 515.835395 192.094692 
L 516.452683 192.133172 
L 517.069971 191.94934 
L 518.304546 193.401573 
L 518.921834 192.33551 
L 519.539121 191.88956 
L 520.156409 192.079347 
L 520.773697 192.694528 
L 521.390985 191.748621 
L 522.008272 191.189701 
L 522.62556 189.776867 
L 523.860136 189.875792 
L 524.477423 188.728387 
L 525.094711 189.842755 
L 526.329287 191.309747 
L 526.946574 190.280941 
L 527.563862 187.086209 
L 528.18115 185.456233 
L 528.798437 183.248746 
L 529.415725 181.753651 
L 530.650301 181.910193 
L 531.267588 180.698093 
L 531.884876 178.470792 
L 532.502164 175.045208 
L 533.736739 170.362432 
L 534.354027 170.307342 
L 535.588603 167.436786 
L 536.20589 167.807425 
L 536.823178 166.648035 
L 537.440466 164.086594 
L 538.057754 160.604434 
L 539.292329 155.829291 
L 539.909617 154.453833 
L 540.526904 156.598239 
L 541.144192 157.622424 
L 541.76148 159.104038 
L 542.996055 160.871613 
L 543.613343 160.41264 
L 544.230631 159.186658 
L 544.847919 159.378268 
L 545.465206 159.830604 
L 546.082494 159.961562 
L 546.699782 159.722843 
L 547.31707 158.547775 
L 547.934357 158.251948 
L 548.551645 157.455343 
L 549.168933 159.195478 
L 549.786221 158.042995 
L 550.403508 158.003302 
L 551.020796 157.170369 
L 551.638084 157.642612 
L 552.255371 157.94124 
L 552.872659 160.222385 
L 553.489947 161.041562 
L 554.107235 160.975163 
L 554.724522 161.038979 
L 555.959098 159.762619 
L 556.576386 159.630653 
L 557.193673 161.560419 
L 557.810961 162.39862 
L 559.045537 166.611812 
L 559.662824 166.496092 
L 560.280112 168.787977 
L 561.514687 178.879509 
L 561.514687 178.879509 
" clip-path="url(#pb3ec141504)" style="fill: none; stroke: #ff7f0e; stroke-width: 1.5; stroke-linecap: square"/>
   </g>
   <g id="line2d_18">
    <path d="M 38.054688 222.057731 
L 38.671975 223.236719 
L 39.289263 223.516672 
L 39.906551 222.032474 
L 40.523838 219.368476 
L 41.141126 218.520392 
L 41.758414 220.137975 
L 42.992989 223.950564 
L 43.610277 223.52713 
L 44.227565 219.850716 
L 45.46214 214.733847 
L 46.079428 213.918115 
L 46.696716 214.834906 
L 47.931291 219.649953 
L 48.548579 220.582537 
L 49.165867 221.91871 
L 49.783154 222.222026 
L 50.400442 222.284797 
L 51.01773 224.606629 
L 51.635018 228.036515 
L 52.252305 232.11181 
L 52.869593 233.294087 
L 53.486881 235.477541 
L 54.104169 234.287394 
L 54.721456 232.642358 
L 55.338744 232.168812 
L 55.956032 233.740927 
L 56.57332 234.583462 
L 57.190607 233.886113 
L 57.807895 234.298373 
L 58.425183 233.713173 
L 59.042471 233.995264 
L 59.659758 234.569887 
L 60.277046 234.918486 
L 60.894334 235.618755 
L 62.128909 240.555327 
L 63.363485 242.781741 
L 64.59806 242.73871 
L 65.215348 242.247656 
L 65.832636 242.115941 
L 66.449923 243.323214 
L 67.067211 245.066988 
L 67.684499 247.322835 
L 68.301787 248.133292 
L 68.919074 250.208814 
L 69.536362 252.802787 
L 70.15365 254.509123 
L 70.770938 252.332505 
L 71.388225 249.742503 
L 72.005513 246.643048 
L 73.240088 245.555346 
L 73.857376 246.13205 
L 74.474664 247.493587 
L 75.709239 248.985207 
L 76.943815 245.582094 
L 77.561103 245.190339 
L 78.17839 245.718245 
L 78.795678 245.597413 
L 79.412966 246.644745 
L 80.030254 246.784913 
L 80.647541 247.817803 
L 81.264829 249.335689 
L 81.882117 248.61721 
L 82.499404 247.298201 
L 83.116692 246.953508 
L 83.73398 247.337676 
L 84.351268 246.992068 
L 84.968555 248.021168 
L 85.585843 248.439413 
L 86.203131 247.902783 
L 86.820419 247.814933 
L 87.437706 246.50059 
L 88.054994 247.331254 
L 88.672282 248.622225 
L 89.28957 248.916272 
L 89.906857 249.519853 
L 90.524145 249.507336 
L 91.141433 249.077904 
L 91.758721 248.096732 
L 92.376008 246.056447 
L 92.993296 245.786844 
L 93.610584 245.808682 
L 94.227871 247.776471 
L 94.845159 248.523301 
L 95.462447 250.37012 
L 96.697022 249.464844 
L 97.31431 247.784612 
L 98.548886 242.476066 
L 99.166173 240.765529 
L 100.400749 241.830344 
L 101.018037 244.037059 
L 101.635324 245.313467 
L 102.252612 244.504283 
L 102.8699 244.15312 
L 103.487187 241.920042 
L 104.104475 240.849192 
L 104.721763 240.307467 
L 105.339051 239.119122 
L 105.956338 237.502763 
L 106.573626 237.297104 
L 107.190914 238.132057 
L 107.808202 237.845053 
L 108.425489 234.913683 
L 109.042777 232.570944 
L 109.660065 232.886575 
L 110.277353 231.990861 
L 111.511928 232.439453 
L 112.129216 230.845302 
L 112.746504 228.036679 
L 113.363791 227.566753 
L 113.981079 226.713065 
L 114.598367 227.368151 
L 115.215654 227.363404 
L 115.832942 228.551417 
L 117.067518 226.058209 
L 117.684805 224.974901 
L 118.302093 223.583489 
L 118.919381 223.307281 
L 119.536669 222.807445 
L 120.153956 223.974763 
L 120.771244 225.489249 
L 121.388532 225.483604 
L 123.240395 215.608539 
L 123.857683 213.883992 
L 124.474971 212.999828 
L 125.092258 211.196199 
L 126.326834 209.56572 
L 126.944121 209.393522 
L 127.561409 210.081771 
L 128.178697 210.232534 
L 128.795985 211.463442 
L 129.413272 211.715323 
L 130.03056 213.624057 
L 130.647848 213.169147 
L 131.265136 213.62544 
L 131.882423 214.290597 
L 132.499711 215.431071 
L 133.116999 217.322157 
L 133.734287 220.939592 
L 134.351574 223.111937 
L 134.968862 224.548567 
L 135.58615 223.277364 
L 136.203437 223.195807 
L 137.438013 226.041363 
L 138.055301 226.693461 
L 138.672588 227.969548 
L 139.289876 228.46786 
L 139.907164 227.644465 
L 140.524452 227.132047 
L 141.141739 227.883604 
L 141.759027 229.696406 
L 142.376315 232.147884 
L 142.993603 233.824198 
L 143.61089 233.086565 
L 144.228178 233.763788 
L 144.845466 232.646184 
L 145.462754 232.707858 
L 146.080041 233.840707 
L 146.697329 234.368723 
L 147.314617 234.081409 
L 149.16648 228.918759 
L 149.783768 228.133271 
L 150.401055 226.705157 
L 151.018343 226.093693 
L 151.635631 225.717307 
L 152.870206 229.892707 
L 153.487494 229.727427 
L 154.104782 230.775313 
L 154.72207 233.347457 
L 155.339357 234.542392 
L 156.573933 237.561492 
L 157.191221 240.5656 
L 157.808508 240.924481 
L 158.425796 240.733446 
L 159.043084 241.509284 
L 159.660371 241.385733 
L 160.277659 240.804403 
L 160.894947 241.085157 
L 161.512235 241.723257 
L 162.129522 241.828634 
L 162.74681 240.830387 
L 163.364098 239.502717 
L 163.981386 239.46596 
L 164.598673 238.858895 
L 165.215961 237.684729 
L 165.833249 235.280373 
L 166.450537 233.48051 
L 167.067824 233.229018 
L 168.919687 233.697915 
L 169.536975 234.621351 
L 170.154263 234.059607 
L 170.771551 231.889836 
L 172.006126 230.616659 
L 172.623414 230.828443 
L 173.240702 229.235216 
L 173.857989 228.637693 
L 174.475277 227.62292 
L 175.092565 227.41071 
L 175.709853 227.066552 
L 176.944428 222.375553 
L 177.561716 221.747767 
L 178.179004 222.1343 
L 178.796291 220.64567 
L 179.413579 221.088437 
L 180.030867 219.457591 
L 180.648154 216.884784 
L 181.265442 215.120606 
L 181.88273 212.081519 
L 182.500018 209.973907 
L 183.117305 210.172971 
L 184.969169 214.511328 
L 185.586456 214.301662 
L 186.203744 213.066368 
L 186.821032 212.956184 
L 188.055607 210.557257 
L 188.672895 208.72524 
L 189.290183 207.829957 
L 191.142046 201.472655 
L 191.759334 200.829986 
L 192.376621 201.16326 
L 192.993909 199.706812 
L 193.611197 198.68512 
L 194.228485 197.950201 
L 195.46306 197.662425 
L 196.080348 199.192331 
L 196.697636 198.279458 
L 197.314923 197.134475 
L 197.932211 195.067778 
L 198.549499 193.397775 
L 199.166787 192.646926 
L 199.784074 191.189458 
L 200.401362 190.058066 
L 201.01865 189.413185 
L 201.635937 186.541394 
L 202.870513 185.410699 
L 203.487801 183.046271 
L 204.105088 182.575136 
L 204.722376 183.148398 
L 205.339664 184.414117 
L 205.956952 180.742947 
L 206.574239 178.130376 
L 207.191527 177.923307 
L 207.808815 178.654543 
L 209.04339 178.86736 
L 209.660678 178.038514 
L 210.277966 177.733984 
L 210.895254 175.801699 
L 212.129829 172.698657 
L 212.747117 170.589252 
L 213.364404 169.066484 
L 213.981692 168.013218 
L 214.59898 168.207594 
L 215.216268 168.207179 
L 216.450843 165.891479 
L 217.068131 165.779839 
L 217.685419 165.870034 
L 218.302706 166.469056 
L 218.919994 166.638339 
L 219.537282 167.566076 
L 220.15457 167.697278 
L 220.771857 166.245382 
L 221.389145 166.443218 
L 222.006433 167.383657 
L 223.241008 172.77593 
L 223.858296 175.093506 
L 224.475584 176.002967 
L 225.092871 177.727307 
L 225.710159 177.486628 
L 226.944735 179.659148 
L 227.562022 180.212753 
L 228.17931 178.433387 
L 228.796598 179.27299 
L 229.413886 180.832207 
L 230.031173 180.631872 
L 230.648461 179.667969 
L 231.265749 177.993412 
L 231.883037 177.542862 
L 232.500324 178.856057 
L 233.7349 179.7857 
L 234.352187 179.643521 
L 234.969475 180.845185 
L 235.586763 181.33789 
L 236.204051 182.446875 
L 236.821338 184.281603 
L 237.438626 185.644349 
L 238.055914 188.616391 
L 239.290489 191.494003 
L 239.907777 192.745877 
L 240.525065 192.609636 
L 241.142353 190.495261 
L 241.75964 190.986114 
L 242.376928 190.770842 
L 242.994216 192.40826 
L 243.611504 189.554992 
L 244.228791 188.799937 
L 244.846079 186.544818 
L 246.080654 188.006881 
L 246.697942 189.666825 
L 247.31523 189.35311 
L 247.932518 189.657742 
L 249.167093 191.024049 
L 249.784381 189.915133 
L 250.401669 188.292991 
L 251.018956 187.450692 
L 251.636244 186.123289 
L 252.253532 186.158506 
L 253.488107 185.027029 
L 254.105395 184.671077 
L 254.722683 182.706191 
L 255.339971 180.22166 
L 255.957258 176.768527 
L 257.191834 173.239944 
L 258.426409 170.497475 
L 259.043697 170.007439 
L 259.660985 169.94756 
L 260.278272 171.288984 
L 261.512848 173.185014 
L 262.747423 176.279901 
L 263.364711 175.17359 
L 263.981999 175.096223 
L 265.216574 172.530711 
L 265.833862 172.563401 
L 266.45115 172.760919 
L 267.068437 172.507507 
L 267.685725 172.12252 
L 268.303013 173.193348 
L 268.920301 171.771718 
L 269.537588 170.904723 
L 270.154876 169.304245 
L 270.772164 169.19978 
L 271.389452 169.351401 
L 272.006739 170.186862 
L 272.624027 171.761124 
L 273.858603 169.819301 
L 274.47589 169.94332 
L 275.093178 168.977576 
L 275.710466 168.842209 
L 276.327754 166.866156 
L 276.945041 167.002528 
L 277.562329 167.871471 
L 278.179617 166.41862 
L 278.796904 165.639582 
L 279.414192 165.500772 
L 280.03148 165.030311 
L 280.648768 165.379409 
L 281.266055 165.331585 
L 281.883343 166.285318 
L 282.500631 168.361945 
L 283.117919 168.541521 
L 283.735206 167.644727 
L 284.352494 167.955646 
L 284.969782 167.605819 
L 285.58707 165.632249 
L 286.204357 163.22331 
L 286.821645 161.593784 
L 287.438933 161.685055 
L 288.056221 162.422941 
L 288.673508 161.343 
L 289.290796 161.375776 
L 290.525371 162.236123 
L 291.142659 160.710133 
L 291.759947 161.438439 
L 292.377235 159.87195 
L 292.994522 159.374582 
L 293.61181 158.177522 
L 294.229098 158.556378 
L 294.846386 157.99897 
L 295.463673 158.988488 
L 296.080961 158.451134 
L 296.698249 159.140539 
L 297.315537 160.296335 
L 297.932824 158.99638 
L 298.550112 157.37499 
L 299.1674 156.244238 
L 299.784687 155.783754 
L 301.636551 158.028893 
L 302.253838 156.911481 
L 302.871126 156.446954 
L 303.488414 156.531995 
L 304.722989 156.066633 
L 305.340277 156.147748 
L 305.957565 155.452061 
L 307.19214 151.73387 
L 307.809428 150.621863 
L 308.426716 147.637604 
L 309.661291 143.437034 
L 310.278579 142.065218 
L 311.513154 139.901253 
L 312.74773 138.415804 
L 313.365018 139.194187 
L 314.599593 139.967766 
L 315.216881 137.174737 
L 315.834169 135.46741 
L 316.451456 133.431042 
L 317.068744 130.888092 
L 317.686032 129.693743 
L 318.30332 128.182032 
L 319.537895 121.478949 
L 320.155183 119.401728 
L 320.772471 117.774484 
L 321.389758 119.025598 
L 322.007046 119.517937 
L 322.624334 118.507556 
L 323.241621 116.601564 
L 323.858909 116.208581 
L 324.476197 115.341152 
L 325.093485 115.500261 
L 325.710772 116.091475 
L 326.32806 115.616563 
L 326.945348 115.854046 
L 327.562636 116.462982 
L 328.179923 117.917367 
L 328.797211 118.741195 
L 329.414499 119.187065 
L 330.031787 119.254909 
L 330.649074 120.468598 
L 331.266362 121.225632 
L 331.88365 121.428248 
L 332.500937 122.009352 
L 333.118225 122.10407 
L 333.735513 123.313121 
L 334.352801 123.263442 
L 334.970088 123.399725 
L 335.587376 124.01281 
L 337.439239 122.898097 
L 338.056527 123.617346 
L 338.673815 126.031322 
L 339.291103 126.523911 
L 339.90839 126.289681 
L 340.525678 126.248975 
L 341.142966 126.618663 
L 341.760254 126.677837 
L 342.994829 127.928659 
L 343.612117 128.460428 
L 344.229404 127.221684 
L 344.846692 126.696452 
L 345.46398 126.533117 
L 346.698555 125.588795 
L 347.315843 125.376974 
L 348.550419 125.947877 
L 349.167706 125.797328 
L 349.784994 124.888033 
L 350.402282 122.535917 
L 351.01957 121.033768 
L 352.254145 122.479791 
L 352.871433 121.94576 
L 353.488721 120.191347 
L 354.723296 119.430652 
L 355.340584 120.806947 
L 355.957871 120.400597 
L 356.575159 120.583368 
L 357.192447 119.84165 
L 357.809735 118.705035 
L 358.427022 119.446647 
L 359.04431 118.35546 
L 359.661598 118.176381 
L 360.278886 116.312837 
L 360.896173 116.386117 
L 361.513461 116.301363 
L 362.130749 116.397332 
L 362.748037 115.030808 
L 363.365324 115.340282 
L 363.982612 115.8184 
L 366.451763 122.121115 
L 367.686338 124.211765 
L 368.920914 128.9248 
L 370.155489 132.62101 
L 371.390065 134.940212 
L 372.62464 135.532812 
L 373.241928 138.511386 
L 373.859216 140.557929 
L 374.476504 141.612532 
L 375.093791 144.158252 
L 376.328367 150.504602 
L 377.562942 158.014692 
L 378.18023 162.194438 
L 378.797518 164.201502 
L 379.414805 164.081639 
L 380.649381 167.430399 
L 381.266669 167.964569 
L 381.883956 167.824232 
L 382.501244 168.137616 
L 383.118532 169.254308 
L 383.73582 169.287261 
L 384.353107 169.675006 
L 384.970395 169.758077 
L 385.587683 170.71166 
L 386.204971 170.277699 
L 386.822258 170.741643 
L 387.439546 171.983357 
L 388.056834 170.21722 
L 388.674121 170.066035 
L 390.525985 172.116814 
L 391.143272 171.93842 
L 391.76056 171.371186 
L 394.229711 167.60342 
L 394.846999 166.322034 
L 395.464287 166.557353 
L 396.081574 166.976668 
L 396.698862 166.547512 
L 397.31615 164.949938 
L 397.933437 163.844663 
L 398.550725 163.315969 
L 399.168013 161.680985 
L 400.402588 159.186568 
L 401.019876 158.36618 
L 401.637164 156.690729 
L 402.254452 155.942454 
L 402.871739 153.860181 
L 404.106315 151.453332 
L 404.723603 149.535484 
L 405.958178 147.899221 
L 406.575466 145.937035 
L 407.192754 145.761324 
L 407.810041 146.603957 
L 408.427329 145.12491 
L 409.044617 142.138129 
L 409.661904 141.340971 
L 410.89648 142.530549 
L 411.513768 143.012144 
L 412.131055 144.19167 
L 412.748343 145.010292 
L 413.365631 146.301068 
L 413.982919 148.31288 
L 414.600206 149.859245 
L 415.217494 150.305128 
L 415.834782 151.128809 
L 416.45207 153.239139 
L 417.069357 153.174861 
L 417.686645 152.640086 
L 418.303933 151.768459 
L 418.921221 151.828222 
L 419.538508 152.996546 
L 420.155796 154.746913 
L 421.390371 161.160402 
L 423.242235 167.310809 
L 423.859522 168.665094 
L 424.47681 168.826395 
L 425.094098 168.500374 
L 426.328673 168.541928 
L 426.945961 169.625077 
L 427.563249 170.468676 
L 428.180537 172.056086 
L 428.797824 173.155726 
L 429.415112 175.481407 
L 430.0324 178.415378 
L 430.649687 179.809382 
L 431.266975 181.674496 
L 431.884263 182.776588 
L 432.501551 181.173804 
L 433.736126 181.455858 
L 434.353414 181.859782 
L 434.970702 183.351858 
L 435.587989 184.344177 
L 436.822565 187.21418 
L 437.439853 185.970529 
L 438.05714 186.545351 
L 438.674428 185.980413 
L 439.909004 186.190747 
L 440.526291 185.948276 
L 441.143579 186.289817 
L 441.760867 186.229093 
L 442.378154 186.3832 
L 442.995442 186.102075 
L 444.230018 187.682091 
L 444.847305 188.504457 
L 445.464593 190.254924 
L 446.081881 190.931654 
L 447.316456 192.900222 
L 447.933744 193.221188 
L 448.551032 193.275623 
L 449.16832 193.803505 
L 449.785607 193.695814 
L 450.402895 193.431092 
L 451.020183 192.742695 
L 451.637471 192.905069 
L 452.254758 192.815153 
L 453.489334 192.043807 
L 454.723909 191.875001 
L 455.341197 190.979321 
L 455.958485 190.560548 
L 457.19306 191.514063 
L 457.810348 191.558318 
L 458.427636 192.822279 
L 459.662211 189.877732 
L 460.279499 188.131862 
L 460.896787 185.353832 
L 462.131362 184.486383 
L 462.74865 186.871181 
L 463.365937 187.565054 
L 463.983225 185.470723 
L 464.600513 183.828898 
L 465.217801 184.524693 
L 465.835088 188.024916 
L 467.069664 182.646229 
L 467.686952 180.15142 
L 468.304239 179.551953 
L 468.921527 179.274419 
L 469.538815 175.44445 
L 470.77339 170.883276 
L 471.390678 168.790126 
L 472.007966 167.615036 
L 472.625254 167.607701 
L 473.242541 166.135339 
L 473.859829 165.662386 
L 474.477117 165.946497 
L 475.094404 167.59601 
L 475.711692 167.891522 
L 476.32898 167.483263 
L 476.946268 165.617499 
L 477.563555 164.280684 
L 478.180843 161.943032 
L 478.798131 161.159042 
L 480.032706 156.782602 
L 480.649994 156.157072 
L 481.267282 156.7299 
L 481.88457 158.175409 
L 482.501857 157.348637 
L 483.119145 157.76692 
L 483.736433 157.800132 
L 484.353721 156.590143 
L 484.971008 156.858662 
L 485.588296 156.117415 
L 486.822871 153.915182 
L 487.440159 153.054593 
L 488.057447 153.067535 
L 488.674735 152.607954 
L 489.292022 151.741614 
L 489.90931 150.080786 
L 490.526598 149.674245 
L 491.143886 149.833987 
L 491.761173 149.104644 
L 492.378461 148.797658 
L 492.995749 148.818796 
L 493.613037 147.890363 
L 494.230324 147.482974 
L 494.847612 147.524051 
L 495.4649 147.706891 
L 496.082187 147.414636 
L 496.699475 147.417201 
L 497.316763 148.401413 
L 497.934051 150.413983 
L 498.551338 152.007875 
L 499.168626 152.064234 
L 499.785914 152.54199 
L 500.403202 152.769829 
L 501.020489 152.789442 
L 501.637777 151.706121 
L 502.872353 150.96743 
L 503.48964 149.900924 
L 504.724216 146.804062 
L 505.341504 146.563985 
L 505.958791 148.180955 
L 506.576079 148.770175 
L 507.193367 150.231851 
L 508.427942 153.56819 
L 509.04523 154.71195 
L 509.662518 155.322946 
L 510.279805 157.136028 
L 511.514381 158.275645 
L 512.748956 157.070634 
L 513.366244 157.659109 
L 513.983532 157.200509 
L 514.60082 157.943039 
L 515.218107 157.447853 
L 515.835395 157.8363 
L 516.452683 157.695745 
L 517.069971 157.22979 
L 517.687258 157.422121 
L 518.304546 159.635254 
L 518.921834 158.263699 
L 519.539121 158.02458 
L 520.156409 157.910946 
L 520.773697 158.452988 
L 521.390985 157.866988 
L 522.62556 155.167155 
L 523.242848 155.123523 
L 523.860136 155.428101 
L 524.477423 155.88106 
L 525.094711 157.633961 
L 526.946574 161.703484 
L 527.563862 162.040025 
L 528.18115 161.897004 
L 528.798437 160.837121 
L 529.415725 160.892556 
L 530.033013 161.677904 
L 530.650301 161.322325 
L 531.884876 159.161202 
L 532.502164 158.526598 
L 533.119452 158.232859 
L 533.736739 158.805169 
L 534.971315 162.967516 
L 535.588603 163.886119 
L 536.20589 166.823359 
L 536.823178 168.23073 
L 537.440466 166.573226 
L 538.057754 163.564846 
L 538.675041 161.528427 
L 539.292329 160.177591 
L 539.909617 160.314738 
L 540.526904 161.293019 
L 541.144192 163.326949 
L 541.76148 165.81828 
L 542.378768 166.836504 
L 542.996055 167.409619 
L 543.613343 166.596641 
L 544.230631 164.799368 
L 544.847919 164.83297 
L 545.465206 165.742458 
L 546.082494 166.064938 
L 546.699782 167.332211 
L 547.31707 167.943123 
L 547.934357 168.780538 
L 548.551645 169.01281 
L 549.168933 171.467053 
L 549.786221 171.051407 
L 550.403508 172.418463 
L 551.020796 171.994639 
L 551.638084 171.821525 
L 552.255371 172.848184 
L 552.872659 174.405355 
L 553.489947 175.491282 
L 554.107235 173.879488 
L 555.959098 170.579883 
L 556.576386 170.310684 
L 557.193673 171.447654 
L 557.810961 171.797154 
L 559.045537 175.243456 
L 559.662824 174.378475 
L 560.280112 175.90575 
L 561.514687 184.879388 
L 561.514687 184.879388 
" clip-path="url(#pb3ec141504)" style="fill: none; stroke: #2ca02c; stroke-width: 1.5; stroke-linecap: square"/>
   </g>
   <g id="line2d_19">
    <path d="M 38.054688 195.510987 
L 38.671975 196.340398 
L 39.289263 196.470877 
L 39.906551 194.695261 
L 40.523838 191.681441 
L 41.141126 191.153044 
L 41.758414 192.167066 
L 42.375702 193.688825 
L 42.992989 195.642165 
L 43.610277 194.878517 
L 44.227565 191.540926 
L 45.46214 187.448027 
L 46.079428 186.655161 
L 46.696716 187.727509 
L 47.931291 192.310119 
L 48.548579 193.612482 
L 49.165867 195.267657 
L 49.783154 195.170795 
L 50.400442 195.548514 
L 51.01773 198.085054 
L 52.252305 205.387489 
L 52.869593 206.756809 
L 53.486881 209.370518 
L 54.721456 206.610891 
L 55.338744 206.320094 
L 55.956032 207.446103 
L 56.57332 208.118629 
L 57.190607 207.764618 
L 57.807895 208.827373 
L 58.425183 208.967908 
L 60.894334 211.801848 
L 61.511621 213.719055 
L 62.128909 216.437325 
L 62.746197 217.926827 
L 63.363485 218.593612 
L 64.59806 217.380797 
L 65.215348 217.556334 
L 65.832636 218.067279 
L 66.449923 219.445766 
L 67.067211 220.370744 
L 67.684499 222.080713 
L 68.301787 222.860116 
L 68.919074 224.785247 
L 69.536362 227.144292 
L 70.15365 228.876673 
L 70.770938 227.371962 
L 72.005513 222.068236 
L 72.622801 221.491793 
L 73.240088 220.543549 
L 73.857376 221.156613 
L 75.709239 224.451013 
L 76.326527 222.415834 
L 76.943815 221.019549 
L 77.561103 220.003459 
L 78.17839 220.900277 
L 78.795678 221.096247 
L 79.412966 222.047624 
L 80.030254 222.302159 
L 80.647541 223.55478 
L 81.264829 225.341468 
L 81.882117 224.915211 
L 83.116692 223.449682 
L 84.351268 222.55578 
L 84.968555 223.00032 
L 85.585843 223.977812 
L 86.820419 223.498658 
L 87.437706 222.198001 
L 88.054994 222.44518 
L 88.672282 223.730579 
L 89.28957 224.480715 
L 89.906857 224.558778 
L 90.524145 224.763411 
L 91.141433 224.660377 
L 91.758721 224.169174 
L 92.376008 221.860431 
L 92.993296 221.372054 
L 93.610584 221.556512 
L 95.462447 225.372384 
L 96.079735 225.686235 
L 96.697022 225.803773 
L 97.31431 224.572727 
L 99.166173 217.684065 
L 100.400749 218.406051 
L 101.018037 220.519923 
L 101.635324 221.635854 
L 102.252612 220.801347 
L 102.8699 220.472598 
L 103.487187 218.708385 
L 104.104475 217.353989 
L 104.721763 216.797097 
L 105.339051 215.46403 
L 105.956338 213.809597 
L 106.573626 213.538737 
L 107.190914 214.098671 
L 107.808202 213.738143 
L 108.425489 210.549632 
L 109.042777 208.863616 
L 109.660065 209.004929 
L 110.277353 207.955141 
L 110.89464 208.44183 
L 111.511928 208.773354 
L 112.129216 206.66608 
L 112.746504 203.543122 
L 113.981079 202.611623 
L 114.598367 203.475332 
L 115.215654 203.823153 
L 115.832942 204.583338 
L 116.45023 202.722103 
L 117.067518 201.813851 
L 118.302093 199.222352 
L 118.919381 198.221393 
L 119.536669 197.835567 
L 120.153956 198.249544 
L 120.771244 199.427683 
L 121.388532 199.528212 
L 122.623107 192.839142 
L 123.240395 190.547158 
L 123.857683 189.130524 
L 124.474971 188.179457 
L 125.092258 186.157008 
L 126.326834 184.693721 
L 126.944121 184.552193 
L 127.561409 184.888156 
L 128.178697 185.685065 
L 128.795985 187.461531 
L 129.413272 187.373848 
L 130.03056 188.955949 
L 130.647848 188.507626 
L 131.265136 189.434929 
L 131.882423 189.839529 
L 132.499711 190.500803 
L 133.116999 192.096854 
L 133.734287 195.285694 
L 134.351574 197.363077 
L 134.968862 197.949355 
L 135.58615 197.206671 
L 136.203437 197.07818 
L 136.820725 198.503051 
L 137.438013 199.149526 
L 138.672588 200.03352 
L 139.289876 201.103529 
L 139.907164 200.874927 
L 141.141739 202.144145 
L 141.759027 204.424859 
L 142.993603 207.966457 
L 143.61089 207.190375 
L 144.228178 207.849565 
L 144.845466 207.151203 
L 145.462754 207.064023 
L 146.080041 209.005179 
L 146.697329 209.180801 
L 147.314617 208.700919 
L 147.931904 207.535468 
L 149.16648 204.590485 
L 151.635631 200.083219 
L 152.870206 203.535643 
L 153.487494 203.424202 
L 154.104782 204.531594 
L 154.72207 207.202684 
L 155.956645 209.598514 
L 156.573933 210.820517 
L 157.191221 213.230888 
L 157.808508 213.393651 
L 158.425796 212.764235 
L 159.043084 213.044555 
L 159.660371 213.953912 
L 160.277659 213.53837 
L 160.894947 213.711532 
L 161.512235 215.082301 
L 162.74681 214.299553 
L 163.364098 213.847867 
L 163.981386 213.104591 
L 164.598673 211.993382 
L 165.215961 210.618656 
L 165.833249 207.810356 
L 166.450537 206.41811 
L 167.067824 206.037766 
L 167.685112 205.520596 
L 168.3024 205.660587 
L 169.536975 207.126094 
L 170.154263 206.464472 
L 170.771551 204.876408 
L 171.388838 204.176343 
L 172.006126 203.988533 
L 172.623414 204.281942 
L 173.240702 202.86695 
L 175.092565 201.50143 
L 175.709853 200.747128 
L 176.944428 196.546509 
L 177.561716 195.471902 
L 178.179004 195.291737 
L 178.796291 193.696032 
L 179.413579 194.046185 
L 180.030867 192.283791 
L 180.648154 191.283589 
L 181.265442 189.476844 
L 181.88273 186.103189 
L 182.500018 183.758107 
L 183.117305 183.785427 
L 184.351881 186.184908 
L 184.969169 186.446281 
L 185.586456 185.982903 
L 186.203744 185.149727 
L 187.43832 184.130046 
L 188.672895 181.22201 
L 189.907471 178.614455 
L 191.142046 175.56239 
L 191.759334 175.188471 
L 192.376621 175.129165 
L 193.611197 172.243426 
L 194.228485 171.795242 
L 194.845772 171.70801 
L 195.46306 171.348007 
L 196.080348 172.74329 
L 196.697636 172.064828 
L 197.314923 171.212928 
L 197.932211 168.574329 
L 198.549499 167.207985 
L 199.166787 167.17109 
L 199.784074 164.851472 
L 200.401362 164.726872 
L 201.01865 163.605106 
L 201.635937 160.457374 
L 202.253225 159.880214 
L 202.870513 159.547832 
L 203.487801 158.541041 
L 204.105088 158.406082 
L 204.722376 158.455739 
L 205.339664 159.696468 
L 205.956952 157.866646 
L 206.574239 153.981441 
L 207.191527 153.045859 
L 207.808815 153.174229 
L 209.04339 152.874913 
L 209.660678 152.887833 
L 210.277966 152.183142 
L 210.895254 150.546417 
L 211.512541 148.217126 
L 213.364404 143.433386 
L 213.981692 141.697814 
L 214.59898 141.181992 
L 215.216268 140.877581 
L 216.450843 138.306829 
L 217.068131 137.900376 
L 217.685419 137.189056 
L 218.302706 138.369549 
L 218.919994 138.176214 
L 219.537282 138.982172 
L 220.15457 138.78056 
L 220.771857 137.293165 
L 221.389145 137.67952 
L 222.006433 138.868139 
L 223.241008 143.572201 
L 224.475584 146.891267 
L 225.092871 148.34058 
L 225.710159 148.250389 
L 226.327447 149.591732 
L 226.944735 150.587274 
L 227.562022 151.037029 
L 228.17931 149.827535 
L 228.796598 150.17728 
L 229.413886 151.706771 
L 230.031173 152.160782 
L 230.648461 151.708142 
L 231.265749 150.290995 
L 231.883037 149.512477 
L 232.500324 150.526083 
L 233.117612 150.066208 
L 233.7349 150.859807 
L 234.352187 150.373675 
L 234.969475 152.618988 
L 235.586763 152.793154 
L 236.204051 153.970254 
L 237.438626 156.902885 
L 238.055914 159.737221 
L 238.673202 160.368209 
L 239.907777 163.399913 
L 240.525065 163.505485 
L 241.142353 161.925485 
L 241.75964 162.93953 
L 242.376928 163.204509 
L 242.994216 164.72028 
L 243.611504 161.806639 
L 244.228791 161.277359 
L 244.846079 159.522638 
L 245.463367 160.140376 
L 246.080654 160.23245 
L 246.697942 160.458108 
L 247.31523 160.45165 
L 248.549805 161.197435 
L 249.167093 162.205291 
L 250.401669 159.620001 
L 251.636244 157.989569 
L 252.253532 157.638884 
L 252.87082 156.491131 
L 253.488107 155.998135 
L 254.105395 155.97539 
L 255.339971 152.91092 
L 255.957258 149.718132 
L 256.574546 148.161503 
L 257.191834 146.051427 
L 257.809121 144.397747 
L 258.426409 143.100679 
L 259.043697 142.345559 
L 259.660985 142.359298 
L 260.89556 144.192549 
L 261.512848 144.36943 
L 262.130136 143.602948 
L 262.747423 145.556675 
L 263.364711 145.185297 
L 263.981999 145.635945 
L 264.599287 145.616007 
L 265.216574 144.986885 
L 265.833862 145.24176 
L 266.45115 145.711901 
L 267.068437 146.684497 
L 267.685725 145.327953 
L 268.303013 146.226073 
L 269.537588 145.184419 
L 270.154876 143.757203 
L 270.772164 142.763405 
L 271.389452 142.613071 
L 272.006739 143.374535 
L 272.624027 144.965002 
L 273.241315 144.563103 
L 273.858603 143.916392 
L 274.47589 144.126189 
L 275.093178 143.966686 
L 275.710466 144.102179 
L 276.327754 141.820588 
L 276.945041 141.994077 
L 277.562329 142.997018 
L 279.414192 140.54496 
L 280.03148 140.01758 
L 281.266055 139.697844 
L 281.883343 140.728076 
L 282.500631 142.311148 
L 283.117919 143.320919 
L 283.735206 143.263818 
L 284.352494 143.427239 
L 284.969782 142.547838 
L 285.58707 140.935001 
L 286.204357 138.508739 
L 287.438933 136.505678 
L 288.056221 137.095238 
L 289.290796 134.958978 
L 289.908084 134.801418 
L 290.525371 134.51348 
L 291.142659 133.852984 
L 291.759947 135.286302 
L 292.377235 133.541024 
L 292.994522 132.555213 
L 293.61181 132.17923 
L 294.846386 132.59302 
L 295.463673 133.581594 
L 296.080961 133.748674 
L 296.698249 135.278863 
L 297.315537 135.538818 
L 297.932824 134.440886 
L 298.550112 133.574165 
L 299.1674 132.232056 
L 299.784687 132.184378 
L 300.401975 132.633827 
L 301.019263 132.305056 
L 301.636551 132.795472 
L 302.253838 131.441973 
L 302.871126 131.221251 
L 304.105702 130.279828 
L 305.340277 130.160101 
L 305.957565 129.926883 
L 307.19214 127.248902 
L 307.809428 126.578912 
L 308.426716 123.928423 
L 309.044004 121.779774 
L 309.661291 120.377413 
L 310.278579 118.606661 
L 310.895867 117.560386 
L 311.513154 116.913315 
L 312.74773 116.079448 
L 313.365018 116.911681 
L 314.599593 116.722905 
L 315.216881 114.338378 
L 315.834169 113.044641 
L 317.068744 108.669281 
L 317.686032 107.925234 
L 318.30332 106.832439 
L 319.537895 100.667746 
L 320.155183 97.91973 
L 320.772471 96.923036 
L 321.389758 98.128414 
L 322.624334 96.216477 
L 323.241621 94.397017 
L 325.093485 93.242384 
L 325.710772 93.426905 
L 326.32806 94.220611 
L 326.945348 94.656715 
L 327.562636 95.696806 
L 328.797211 99.051741 
L 329.414499 100.050743 
L 330.031787 99.000261 
L 330.649074 100.03692 
L 331.266362 99.571688 
L 331.88365 99.36449 
L 333.118225 100.298881 
L 333.735513 101.756377 
L 334.352801 102.845249 
L 334.970088 103.042442 
L 336.204664 104.08688 
L 336.821952 104.087562 
L 338.056527 105.354041 
L 338.673815 107.059331 
L 339.291103 107.465241 
L 339.90839 106.713909 
L 340.525678 106.222455 
L 341.760254 106.299117 
L 342.377541 106.931304 
L 342.994829 107.765716 
L 343.612117 107.604654 
L 344.229404 106.231981 
L 344.846692 106.332249 
L 345.46398 106.546789 
L 346.081268 106.591915 
L 346.698555 105.963647 
L 347.315843 106.02348 
L 347.933131 106.785905 
L 349.167706 106.535331 
L 349.784994 106.03901 
L 350.402282 104.49756 
L 351.01957 102.519493 
L 352.254145 103.530113 
L 352.871433 103.10635 
L 353.488721 101.694392 
L 354.106008 100.849999 
L 354.723296 101.036132 
L 355.340584 102.302742 
L 355.957871 102.567293 
L 356.575159 102.427083 
L 357.192447 100.849165 
L 357.809735 101.091496 
L 358.427022 102.493314 
L 359.04431 102.079136 
L 359.661598 102.761742 
L 360.278886 101.396296 
L 360.896173 100.93692 
L 361.513461 100.034984 
L 362.130749 100.866962 
L 362.748037 99.884839 
L 363.365324 100.113833 
L 363.982612 99.779985 
L 364.5999 100.816498 
L 365.217187 102.685142 
L 365.834475 105.278816 
L 366.451763 106.969016 
L 367.686338 109.107783 
L 368.303626 111.114628 
L 368.920914 113.896235 
L 370.772777 118.384967 
L 371.390065 118.864528 
L 372.007353 120.084001 
L 372.62464 120.187988 
L 373.241928 122.529228 
L 374.476504 125.613336 
L 376.328367 134.178646 
L 378.18023 145.560472 
L 378.797518 147.172909 
L 379.414805 147.616712 
L 380.649381 151.37165 
L 381.266669 151.490601 
L 381.883956 150.690972 
L 382.501244 150.604734 
L 383.118532 151.717915 
L 383.73582 152.339681 
L 384.353107 152.263964 
L 384.970395 151.846644 
L 385.587683 153.008905 
L 386.204971 153.241745 
L 386.822258 153.874079 
L 387.439546 155.003422 
L 388.056834 154.397836 
L 388.674121 154.205568 
L 389.291409 154.227067 
L 389.908697 154.518705 
L 391.143272 154.958841 
L 391.76056 153.036543 
L 392.377848 152.379503 
L 392.995136 152.090246 
L 394.229711 148.790883 
L 394.846999 147.872314 
L 395.464287 148.076707 
L 396.081574 148.66125 
L 397.933437 146.632699 
L 399.168013 143.960543 
L 399.785301 143.480977 
L 401.019876 141.248638 
L 403.489027 133.481842 
L 404.106315 132.616447 
L 404.723603 131.196303 
L 406.575466 128.166137 
L 407.192754 128.104668 
L 407.810041 128.40676 
L 409.044617 123.992674 
L 409.661904 123.250368 
L 410.279192 123.734369 
L 411.513768 124.912537 
L 412.131055 124.923366 
L 412.748343 125.321591 
L 413.365631 126.298105 
L 413.982919 127.65289 
L 414.600206 128.033458 
L 415.217494 127.413189 
L 415.834782 128.375133 
L 416.45207 129.877272 
L 417.686645 128.654282 
L 418.303933 127.820287 
L 418.921221 127.412314 
L 419.538508 128.120054 
L 420.155796 129.740705 
L 421.390371 135.823307 
L 422.007659 137.917198 
L 422.624947 138.886051 
L 423.859522 142.012471 
L 424.47681 141.845301 
L 425.094098 141.908307 
L 425.711386 142.437553 
L 426.328673 142.624083 
L 426.945961 143.242736 
L 427.563249 143.684035 
L 428.180537 144.693965 
L 429.415112 148.711071 
L 430.0324 151.535978 
L 431.266975 154.860739 
L 431.884263 155.936305 
L 432.501551 155.082807 
L 433.118838 154.522612 
L 433.736126 155.03372 
L 434.353414 155.172505 
L 434.970702 156.704301 
L 436.205277 158.727973 
L 436.822565 159.412522 
L 437.439853 158.665646 
L 438.674428 158.45056 
L 439.291716 158.558102 
L 440.526291 158.073903 
L 441.143579 158.220544 
L 441.760867 158.631102 
L 442.995442 158.755473 
L 443.61273 159.351582 
L 444.230018 159.779482 
L 446.081881 162.956438 
L 446.699169 164.612874 
L 447.316456 165.321709 
L 447.933744 165.523175 
L 448.551032 164.776425 
L 449.16832 164.568042 
L 449.785607 164.574614 
L 451.020183 164.267082 
L 452.254758 163.066888 
L 452.872046 162.813833 
L 453.489334 162.689182 
L 454.106621 162.996525 
L 454.723909 163.000999 
L 455.341197 161.968028 
L 455.958485 161.817478 
L 456.575772 162.164884 
L 457.19306 162.852131 
L 457.810348 162.902299 
L 458.427636 164.116564 
L 459.044923 162.356527 
L 459.662211 161.624171 
L 460.279499 159.564979 
L 461.514074 157.551454 
L 462.131362 157.594167 
L 462.74865 159.753809 
L 463.365937 159.957042 
L 464.600513 156.736362 
L 465.217801 157.262213 
L 465.835088 161.661908 
L 466.452376 159.890997 
L 467.069664 157.08961 
L 467.686952 155.368599 
L 468.304239 155.104619 
L 468.921527 155.500374 
L 469.538815 152.366379 
L 470.77339 148.526519 
L 471.390678 146.516807 
L 472.007966 145.795514 
L 472.625254 145.440756 
L 473.859829 144.21651 
L 474.477117 143.962791 
L 475.094404 144.559456 
L 475.711692 144.697237 
L 476.32898 143.821632 
L 477.563555 140.858346 
L 478.180843 138.783769 
L 479.415419 135.950091 
L 480.032706 133.448937 
L 480.649994 133.013172 
L 481.267282 133.716419 
L 481.88457 134.819997 
L 482.501857 133.88971 
L 483.119145 134.393163 
L 483.736433 134.505069 
L 484.353721 133.11985 
L 484.971008 133.227739 
L 485.588296 132.75441 
L 486.822871 130.24755 
L 488.057447 130.189983 
L 488.674735 129.505187 
L 489.292022 127.204322 
L 490.526598 124.609355 
L 491.143886 124.980368 
L 492.378461 124.481172 
L 492.995749 124.48497 
L 493.613037 123.694346 
L 494.847612 124.14252 
L 495.4649 124.826509 
L 496.082187 124.365725 
L 496.699475 124.228508 
L 497.316763 125.46761 
L 497.934051 127.596976 
L 498.551338 129.164396 
L 499.168626 129.042587 
L 499.785914 128.341654 
L 500.403202 129.04239 
L 501.020489 128.684028 
L 501.637777 127.721535 
L 502.255065 127.516683 
L 502.872353 127.633577 
L 503.48964 126.720559 
L 504.724216 124.16385 
L 505.341504 123.388824 
L 505.958791 125.350683 
L 506.576079 125.909048 
L 507.193367 127.221688 
L 507.810654 128.863509 
L 508.427942 129.810722 
L 509.04523 130.430138 
L 509.662518 131.68617 
L 510.279805 132.616609 
L 510.897093 132.909163 
L 511.514381 132.947193 
L 512.131669 132.849691 
L 512.748956 132.11015 
L 513.366244 132.188775 
L 514.60082 132.017728 
L 515.218107 131.645022 
L 515.835395 132.118005 
L 517.069971 130.802164 
L 517.687258 131.792487 
L 518.304546 133.615594 
L 518.921834 133.509089 
L 519.539121 132.208001 
L 520.156409 132.126979 
L 520.773697 132.454508 
L 521.390985 131.533815 
L 522.008272 131.374827 
L 522.62556 129.774118 
L 523.242848 129.996664 
L 523.860136 131.003288 
L 524.477423 131.429775 
L 525.094711 132.601612 
L 525.711999 133.213138 
L 526.329287 134.979778 
L 526.946574 136.13259 
L 527.563862 136.549146 
L 528.798437 135.356778 
L 530.033013 134.934354 
L 530.650301 135.536109 
L 531.267588 134.438277 
L 531.884876 133.609602 
L 532.502164 133.358945 
L 533.119452 132.725576 
L 533.736739 133.128029 
L 534.354027 135.110148 
L 534.971315 136.578223 
L 535.588603 137.444768 
L 536.20589 140.494337 
L 536.823178 141.293994 
L 537.440466 139.207776 
L 538.057754 135.473122 
L 539.292329 131.668187 
L 539.909617 132.308567 
L 540.526904 134.004026 
L 541.144192 135.15847 
L 541.76148 138.006668 
L 542.378768 139.880679 
L 542.996055 140.506309 
L 543.613343 139.62564 
L 544.230631 137.998713 
L 544.847919 137.920014 
L 545.465206 139.161851 
L 546.082494 139.229068 
L 546.699782 140.600688 
L 547.31707 140.563565 
L 547.934357 142.015027 
L 548.551645 142.080693 
L 549.168933 143.745805 
L 549.786221 143.537012 
L 550.403508 144.202611 
L 551.020796 142.839927 
L 551.638084 143.137091 
L 552.255371 143.559317 
L 553.489947 145.538421 
L 556.576386 139.47966 
L 557.193673 140.108832 
L 557.810961 139.231403 
L 559.045537 142.699785 
L 559.662824 142.816634 
L 560.280112 143.558715 
L 561.514687 152.290838 
L 561.514687 152.290838 
" clip-path="url(#pb3ec141504)" style="fill: none; stroke: #d62728; stroke-width: 1.5; stroke-linecap: square"/>
   </g>
   <g id="patch_3">
    <path d="M 38.054688 257.24 
L 38.054688 76.407 
" style="fill: none; stroke: #000000; stroke-width: 0.8; stroke-linejoin: miter; stroke-linecap: square"/>
   </g>
   <g id="patch_4">
    <path d="M 561.514687 257.24 
L 561.514687 76.407 
" style="fill: none; stroke: #000000; stroke-width: 0.8; stroke-linejoin: miter; stroke-linecap: square"/>
   </g>
   <g id="patch_5">
    <path d="M 38.054688 257.24 
L 561.514687 257.24 
" style="fill: none; stroke: #000000; stroke-width: 0.8; stroke-linejoin: miter; stroke-linecap: square"/>
   </g>
   <g id="patch_6">
    <path d="M 38.054688 76.407 
L 561.514687 76.407 
" style="fill: none; stroke: #000000; stroke-width: 0.8; stroke-linejoin: miter; stroke-linecap: square"/>
   </g>
   <g id="text_16">
    <!-- ChrX 40.0kb -->
    <g transform="translate(253.386641 50.150906) scale(0.15 -0.15)">
     <defs>
      <path id="DejaVuSans-43" d="M 4122 4306 
L 4122 3641 
Q 3803 3938 3442 4084 
Q 3081 4231 2675 4231 
Q 1875 4231 1450 3742 
Q 1025 3253 1025 2328 
Q 1025 1406 1450 917 
Q 1875 428 2675 428 
Q 3081 428 3442 575 
Q 3803 722 4122 1019 
L 4122 359 
Q 3791 134 3420 21 
Q 3050 -91 2638 -91 
Q 1578 -91 968 557 
Q 359 1206 359 2328 
Q 359 3453 968 4101 
Q 1578 4750 2638 4750 
Q 3056 4750 3426 4639 
Q 3797 4528 4122 4306 
z
" transform="scale(0.015625)"/>
      <path id="DejaVuSans-68" d="M 3513 2113 
L 3513 0 
L 2938 0 
L 2938 2094 
Q 2938 2591 2744 2837 
Q 2550 3084 2163 3084 
Q 1697 3084 1428 2787 
Q 1159 2491 1159 1978 
L 1159 0 
L 581 0 
L 581 4863 
L 1159 4863 
L 1159 2956 
Q 1366 3272 1645 3428 
Q 1925 3584 2291 3584 
Q 2894 3584 3203 3211 
Q 3513 2838 3513 2113 
z
" transform="scale(0.015625)"/>
      <path id="DejaVuSans-72" d="M 2631 2963 
Q 2534 3019 2420 3045 
Q 2306 3072 2169 3072 
Q 1681 3072 1420 2755 
Q 1159 2438 1159 1844 
L 1159 0 
L 581 0 
L 581 3500 
L 1159 3500 
L 1159 2956 
Q 1341 3275 1631 3429 
Q 1922 3584 2338 3584 
Q 2397 3584 2469 3576 
Q 2541 3569 2628 3553 
L 2631 2963 
z
" transform="scale(0.015625)"/>
      <path id="DejaVuSans-58" d="M 403 4666 
L 1081 4666 
L 2241 2931 
L 3406 4666 
L 4084 4666 
L 2584 2425 
L 4184 0 
L 3506 0 
L 2194 1984 
L 872 0 
L 191 0 
L 1856 2491 
L 403 4666 
z
" transform="scale(0.015625)"/>
      <path id="DejaVuSans-20" transform="scale(0.015625)"/>
      <path id="DejaVuSans-6b" d="M 581 4863 
L 1159 4863 
L 1159 1991 
L 2875 3500 
L 3609 3500 
L 1753 1863 
L 3688 0 
L 2938 0 
L 1159 1709 
L 1159 0 
L 581 0 
L 581 4863 
z
" transform="scale(0.015625)"/>
      <path id="DejaVuSans-62" d="M 3116 1747 
Q 3116 2381 2855 2742 
Q 2594 3103 2138 3103 
Q 1681 3103 1420 2742 
Q 1159 2381 1159 1747 
Q 1159 1113 1420 752 
Q 1681 391 2138 391 
Q 2594 391 2855 752 
Q 3116 1113 3116 1747 
z
M 1159 2969 
Q 1341 3281 1617 3432 
Q 1894 3584 2278 3584 
Q 2916 3584 3314 3078 
Q 3713 2572 3713 1747 
Q 3713 922 3314 415 
Q 2916 -91 2278 -91 
Q 1894 -91 1617 61 
Q 1341 213 1159 525 
L 1159 0 
L 581 0 
L 581 4863 
L 1159 4863 
L 1159 2969 
z
" transform="scale(0.015625)"/>
     </defs>
     <use xlink:href="#DejaVuSans-43"/>
     <use xlink:href="#DejaVuSans-68" transform="translate(69.824219 0)"/>
     <use xlink:href="#DejaVuSans-72" transform="translate(133.203125 0)"/>
     <use xlink:href="#DejaVuSans-58" transform="translate(174.316406 0)"/>
     <use xlink:href="#DejaVuSans-20" transform="translate(242.822266 0)"/>
     <use xlink:href="#DejaVuSans-34" transform="translate(274.609375 0)"/>
     <use xlink:href="#DejaVuSans-30" transform="translate(338.232422 0)"/>
     <use xlink:href="#DejaVuSans-2e" transform="translate(401.855469 0)"/>
     <use xlink:href="#DejaVuSans-30" transform="translate(433.642578 0)"/>
     <use xlink:href="#DejaVuSans-6b" transform="translate(497.265625 0)"/>
     <use xlink:href="#DejaVuSans-62" transform="translate(555.175781 0)"/>
    </g>
    <!-- $\overline{Q}_{BR} = 0.99$ $\overline{Q}_{NR} = 0.80$ -->
    <g transform="translate(218.559687 70.407) scale(0.15 -0.15)">
     <defs>
      <path id="DejaVuSans-Oblique-51" d="M 2309 -84 
Q 2275 -88 2237 -89 
Q 2200 -91 2125 -91 
Q 1250 -91 756 411 
Q 263 913 263 1797 
Q 263 2319 452 2844 
Q 641 3369 978 3788 
Q 1369 4269 1858 4509 
Q 2347 4750 2938 4750 
Q 3794 4750 4287 4245 
Q 4781 3741 4781 2869 
Q 4781 1928 4265 1147 
Q 3750 366 2919 44 
L 3553 -825 
L 2847 -825 
L 2309 -84 
z
M 2919 4238 
Q 2400 4238 2003 3986 
Q 1606 3734 1313 3219 
Q 1125 2891 1026 2522 
Q 928 2153 928 1778 
Q 928 1128 1239 775 
Q 1550 422 2119 422 
Q 2631 422 3032 676 
Q 3434 931 3719 1434 
Q 3909 1772 4009 2142 
Q 4109 2513 4109 2881 
Q 4109 3528 3796 3883 
Q 3484 4238 2919 4238 
z
" transform="scale(0.015625)"/>
      <path id="DejaVuSans-Oblique-42" d="M 1081 4666 
L 2694 4666 
Q 3350 4666 3675 4422 
Q 4000 4178 4000 3688 
Q 4000 3238 3720 2911 
Q 3441 2584 2988 2516 
Q 3375 2428 3569 2181 
Q 3763 1934 3763 1522 
Q 3763 819 3242 409 
Q 2722 0 1819 0 
L 172 0 
L 1081 4666 
z
M 1234 2228 
L 903 519 
L 1919 519 
Q 2491 519 2800 781 
Q 3109 1044 3109 1522 
Q 3109 1891 2904 2059 
Q 2700 2228 2247 2228 
L 1234 2228 
z
M 1606 4147 
L 1331 2741 
L 2272 2741 
Q 2775 2741 3058 2959 
Q 3341 3178 3341 3566 
Q 3341 3869 3150 4008 
Q 2959 4147 2541 4147 
L 1606 4147 
z
" transform="scale(0.015625)"/>
      <path id="DejaVuSans-Oblique-52" d="M 1613 4147 
L 1294 2491 
L 2106 2491 
Q 2584 2491 2879 2755 
Q 3175 3019 3175 3444 
Q 3175 3784 2976 3965 
Q 2778 4147 2406 4147 
L 1613 4147 
z
M 2772 2241 
Q 2972 2194 3105 2009 
Q 3238 1825 3413 1275 
L 3809 0 
L 3144 0 
L 2778 1197 
Q 2638 1659 2453 1815 
Q 2269 1972 1888 1972 
L 1191 1972 
L 806 0 
L 172 0 
L 1081 4666 
L 2503 4666 
Q 3150 4666 3495 4373 
Q 3841 4081 3841 3531 
Q 3841 3044 3547 2687 
Q 3253 2331 2772 2241 
z
" transform="scale(0.015625)"/>
      <path id="DejaVuSans-3d" d="M 678 2906 
L 4684 2906 
L 4684 2381 
L 678 2381 
L 678 2906 
z
M 678 1631 
L 4684 1631 
L 4684 1100 
L 678 1100 
L 678 1631 
z
" transform="scale(0.015625)"/>
      <path id="DejaVuSans-39" d="M 703 97 
L 703 672 
Q 941 559 1184 500 
Q 1428 441 1663 441 
Q 2288 441 2617 861 
Q 2947 1281 2994 2138 
Q 2813 1869 2534 1725 
Q 2256 1581 1919 1581 
Q 1219 1581 811 2004 
Q 403 2428 403 3163 
Q 403 3881 828 4315 
Q 1253 4750 1959 4750 
Q 2769 4750 3195 4129 
Q 3622 3509 3622 2328 
Q 3622 1225 3098 567 
Q 2575 -91 1691 -91 
Q 1453 -91 1209 -44 
Q 966 3 703 97 
z
M 1959 2075 
Q 2384 2075 2632 2365 
Q 2881 2656 2881 3163 
Q 2881 3666 2632 3958 
Q 2384 4250 1959 4250 
Q 1534 4250 1286 3958 
Q 1038 3666 1038 3163 
Q 1038 2656 1286 2365 
Q 1534 2075 1959 2075 
z
" transform="scale(0.015625)"/>
      <path id="DejaVuSans-Oblique-4e" d="M 1081 4666 
L 1931 4666 
L 3219 666 
L 4000 4666 
L 4616 4666 
L 3706 0 
L 2853 0 
L 1569 4025 
L 788 0 
L 172 0 
L 1081 4666 
z
" transform="scale(0.015625)"/>
     </defs>
     <use xlink:href="#DejaVuSans-Oblique-51" transform="translate(0 0.53125)"/>
     <use xlink:href="#DejaVuSans-Oblique-42" transform="translate(79.667969 -16.375) scale(0.7)"/>
     <use xlink:href="#DejaVuSans-Oblique-52" transform="translate(127.69043 -16.375) scale(0.7)"/>
     <use xlink:href="#DejaVuSans-3d" transform="translate(198.544922 0.03125)"/>
     <use xlink:href="#DejaVuSans-30" transform="translate(301.816406 0.03125)"/>
     <use xlink:href="#DejaVuSans-2e" transform="translate(365.439453 0.03125)"/>
     <use xlink:href="#DejaVuSans-39" transform="translate(397.226562 0.03125)"/>
     <use xlink:href="#DejaVuSans-39" transform="translate(460.849609 0.03125)"/>
     <use xlink:href="#DejaVuSans-20" transform="translate(524.472656 0.03125)"/>
     <use xlink:href="#DejaVuSans-Oblique-51" transform="translate(556.259766 0.53125)"/>
     <use xlink:href="#DejaVuSans-Oblique-4e" transform="translate(635.927734 -16.375) scale(0.7)"/>
     <use xlink:href="#DejaVuSans-Oblique-52" transform="translate(688.291016 -16.375) scale(0.7)"/>
     <use xlink:href="#DejaVuSans-3d" transform="translate(759.145508 0.03125)"/>
     <use xlink:href="#DejaVuSans-30" transform="translate(862.416992 0.03125)"/>
     <use xlink:href="#DejaVuSans-2e" transform="translate(926.040039 0.03125)"/>
     <use xlink:href="#DejaVuSans-38" transform="translate(955.202148 0.03125)"/>
     <use xlink:href="#DejaVuSans-30" transform="translate(1018.825195 0.03125)"/>
     <path d="M 0 86.5 
L 0 92.75 
L 78.710938 92.75 
L 78.710938 86.5 
L 0 86.5 
z
"/>
     <path d="M 556.259766 86.5 
L 556.259766 92.75 
L 634.970703 92.75 
L 634.970703 86.5 
L 556.259766 86.5 
z
"/>
    </g>
   </g>
   <g id="legend_1">
    <g id="patch_7">
     <path d="M 472.32875 143.1195 
L 554.514687 143.1195 
Q 556.514687 143.1195 556.514687 141.1195 
L 556.514687 83.407 
Q 556.514687 81.407 554.514687 81.407 
L 472.32875 81.407 
Q 470.32875 81.407 470.32875 83.407 
L 470.32875 141.1195 
Q 470.32875 143.1195 472.32875 143.1195 
z
" style="fill: #ffffff; opacity: 0.8; stroke: #cccccc; stroke-linejoin: miter"/>
    </g>
    <g id="line2d_20">
     <path d="M 474.32875 89.505437 
L 484.32875 89.505437 
L 494.32875 89.505437 
" style="fill: none; stroke: #1f77b4; stroke-width: 1.5; stroke-linecap: square"/>
    </g>
    <g id="text_17">
     <!-- G401 BR1 -->
     <g transform="translate(502.32875 93.005437) scale(0.1 -0.1)">
      <defs>
       <path id="DejaVuSans-47" d="M 3809 666 
L 3809 1919 
L 2778 1919 
L 2778 2438 
L 4434 2438 
L 4434 434 
Q 4069 175 3628 42 
Q 3188 -91 2688 -91 
Q 1594 -91 976 548 
Q 359 1188 359 2328 
Q 359 3472 976 4111 
Q 1594 4750 2688 4750 
Q 3144 4750 3555 4637 
Q 3966 4525 4313 4306 
L 4313 3634 
Q 3963 3931 3569 4081 
Q 3175 4231 2741 4231 
Q 1884 4231 1454 3753 
Q 1025 3275 1025 2328 
Q 1025 1384 1454 906 
Q 1884 428 2741 428 
Q 3075 428 3337 486 
Q 3600 544 3809 666 
z
" transform="scale(0.015625)"/>
       <path id="DejaVuSans-42" d="M 1259 2228 
L 1259 519 
L 2272 519 
Q 2781 519 3026 730 
Q 3272 941 3272 1375 
Q 3272 1813 3026 2020 
Q 2781 2228 2272 2228 
L 1259 2228 
z
M 1259 4147 
L 1259 2741 
L 2194 2741 
Q 2656 2741 2882 2914 
Q 3109 3088 3109 3444 
Q 3109 3797 2882 3972 
Q 2656 4147 2194 4147 
L 1259 4147 
z
M 628 4666 
L 2241 4666 
Q 2963 4666 3353 4366 
Q 3744 4066 3744 3513 
Q 3744 3084 3544 2831 
Q 3344 2578 2956 2516 
Q 3422 2416 3680 2098 
Q 3938 1781 3938 1306 
Q 3938 681 3513 340 
Q 3088 0 2303 0 
L 628 0 
L 628 4666 
z
" transform="scale(0.015625)"/>
       <path id="DejaVuSans-52" d="M 2841 2188 
Q 3044 2119 3236 1894 
Q 3428 1669 3622 1275 
L 4263 0 
L 3584 0 
L 2988 1197 
Q 2756 1666 2539 1819 
Q 2322 1972 1947 1972 
L 1259 1972 
L 1259 0 
L 628 0 
L 628 4666 
L 2053 4666 
Q 2853 4666 3247 4331 
Q 3641 3997 3641 3322 
Q 3641 2881 3436 2590 
Q 3231 2300 2841 2188 
z
M 1259 4147 
L 1259 2491 
L 2053 2491 
Q 2509 2491 2742 2702 
Q 2975 2913 2975 3322 
Q 2975 3731 2742 3939 
Q 2509 4147 2053 4147 
L 1259 4147 
z
" transform="scale(0.015625)"/>
      </defs>
      <use xlink:href="#DejaVuSans-47"/>
      <use xlink:href="#DejaVuSans-34" transform="translate(77.490234 0)"/>
      <use xlink:href="#DejaVuSans-30" transform="translate(141.113281 0)"/>
      <use xlink:href="#DejaVuSans-31" transform="translate(204.736328 0)"/>
      <use xlink:href="#DejaVuSans-20" transform="translate(268.359375 0)"/>
      <use xlink:href="#DejaVuSans-42" transform="translate(300.146484 0)"/>
      <use xlink:href="#DejaVuSans-52" transform="translate(368.75 0)"/>
      <use xlink:href="#DejaVuSans-31" transform="translate(438.232422 0)"/>
     </g>
    </g>
    <g id="line2d_21">
     <path d="M 474.32875 104.183562 
L 484.32875 104.183562 
L 494.32875 104.183562 
" style="fill: none; stroke: #ff7f0e; stroke-width: 1.5; stroke-linecap: square"/>
    </g>
    <g id="text_18">
     <!-- G401 BR2 -->
     <g transform="translate(502.32875 107.683562) scale(0.1 -0.1)">
      <use xlink:href="#DejaVuSans-47"/>
      <use xlink:href="#DejaVuSans-34" transform="translate(77.490234 0)"/>
      <use xlink:href="#DejaVuSans-30" transform="translate(141.113281 0)"/>
      <use xlink:href="#DejaVuSans-31" transform="translate(204.736328 0)"/>
      <use xlink:href="#DejaVuSans-20" transform="translate(268.359375 0)"/>
      <use xlink:href="#DejaVuSans-42" transform="translate(300.146484 0)"/>
      <use xlink:href="#DejaVuSans-52" transform="translate(368.75 0)"/>
      <use xlink:href="#DejaVuSans-32" transform="translate(438.232422 0)"/>
     </g>
    </g>
    <g id="line2d_22">
     <path d="M 474.32875 118.861687 
L 484.32875 118.861687 
L 494.32875 118.861687 
" style="fill: none; stroke: #2ca02c; stroke-width: 1.5; stroke-linecap: square"/>
    </g>
    <g id="text_19">
     <!-- A549 BR1 -->
     <g transform="translate(502.32875 122.361687) scale(0.1 -0.1)">
      <defs>
       <path id="DejaVuSans-41" d="M 2188 4044 
L 1331 1722 
L 3047 1722 
L 2188 4044 
z
M 1831 4666 
L 2547 4666 
L 4325 0 
L 3669 0 
L 3244 1197 
L 1141 1197 
L 716 0 
L 50 0 
L 1831 4666 
z
" transform="scale(0.015625)"/>
      </defs>
      <use xlink:href="#DejaVuSans-41"/>
      <use xlink:href="#DejaVuSans-35" transform="translate(68.408203 0)"/>
      <use xlink:href="#DejaVuSans-34" transform="translate(132.03125 0)"/>
      <use xlink:href="#DejaVuSans-39" transform="translate(195.654297 0)"/>
      <use xlink:href="#DejaVuSans-20" transform="translate(259.277344 0)"/>
      <use xlink:href="#DejaVuSans-42" transform="translate(291.064453 0)"/>
      <use xlink:href="#DejaVuSans-52" transform="translate(359.667969 0)"/>
      <use xlink:href="#DejaVuSans-31" transform="translate(429.150391 0)"/>
     </g>
    </g>
    <g id="line2d_23">
     <path d="M 474.32875 133.539812 
L 484.32875 133.539812 
L 494.32875 133.539812 
" style="fill: none; stroke: #d62728; stroke-width: 1.5; stroke-linecap: square"/>
    </g>
    <g id="text_20">
     <!-- A549 BR2 -->
     <g transform="translate(502.32875 137.039812) scale(0.1 -0.1)">
      <use xlink:href="#DejaVuSans-41"/>
      <use xlink:href="#DejaVuSans-35" transform="translate(68.408203 0)"/>
      <use xlink:href="#DejaVuSans-34" transform="translate(132.03125 0)"/>
      <use xlink:href="#DejaVuSans-39" transform="translate(195.654297 0)"/>
      <use xlink:href="#DejaVuSans-20" transform="translate(259.277344 0)"/>
      <use xlink:href="#DejaVuSans-42" transform="translate(291.064453 0)"/>
      <use xlink:href="#DejaVuSans-52" transform="translate(359.667969 0)"/>
      <use xlink:href="#DejaVuSans-32" transform="translate(429.150391 0)"/>
     </g>
    </g>
   </g>
  </g>
  <g id="text_21">
   <!-- 40000kb -->
   <g transform="translate(257.94375 16.318125) scale(0.12 -0.12)">
    <use xlink:href="#DejaVuSans-34"/>
    <use xlink:href="#DejaVuSans-30" transform="translate(63.623047 0)"/>
    <use xlink:href="#DejaVuSans-30" transform="translate(127.246094 0)"/>
    <use xlink:href="#DejaVuSans-30" transform="translate(190.869141 0)"/>
    <use xlink:href="#DejaVuSans-30" transform="translate(254.492188 0)"/>
    <use xlink:href="#DejaVuSans-6b" transform="translate(318.115234 0)"/>
    <use xlink:href="#DejaVuSans-62" transform="translate(376.025391 0)"/>
   </g>
  </g>
 </g>
 <defs>
  <clipPath id="pb3ec141504">
   <rect x="38.054688" y="76.407" width="523.46" height="180.833"/>
  </clipPath>
 </defs>
</svg>
